<?xml version="1.0" encoding="utf-8" standalone="no"?>
<!DOCTYPE svg PUBLIC "-//W3C//DTD SVG 1.1//EN"
  "http://www.w3.org/Graphics/SVG/1.1/DTD/svg11.dtd">
<svg xmlns:xlink="http://www.w3.org/1999/xlink" width="406.885938pt" height="211.07625pt" viewBox="0 0 406.885938 211.07625" xmlns="http://www.w3.org/2000/svg" version="1.1">
 <metadata>
  <rdf:RDF xmlns:dc="http://purl.org/dc/elements/1.1/" xmlns:cc="http://creativecommons.org/ns#" xmlns:rdf="http://www.w3.org/1999/02/22-rdf-syntax-ns#">
   <cc:Work>
    <dc:type rdf:resource="http://purl.org/dc/dcmitype/StillImage"/>
    <dc:date>2024-11-27T19:59:29.094922</dc:date>
    <dc:format>image/svg+xml</dc:format>
    <dc:creator>
     <cc:Agent>
      <dc:title>Matplotlib v3.9.2, https://matplotlib.org/</dc:title>
     </cc:Agent>
    </dc:creator>
   </cc:Work>
  </rdf:RDF>
 </metadata>
 <defs>
  <style type="text/css">*{stroke-linejoin: round; stroke-linecap: butt}</style>
 </defs>
 <g id="figure_1">
  <g id="patch_1">
   <path d="M 0 211.07625 
L 406.885938 211.07625 
L 406.885938 0 
L 0 0 
z
" style="fill: #ffffff"/>
  </g>
  <g id="axes_1">
   <g id="patch_2">
    <path d="M 52.160938 173.52 
L 386.960938 173.52 
L 386.960938 7.2 
L 52.160938 7.2 
z
" style="fill: #ffffff"/>
   </g>
   <g id="matplotlib.axis_1">
    <g id="xtick_1">
     <g id="line2d_1">
      <path d="M 117.775008 173.52 
L 117.775008 7.2 
" clip-path="url(#pb0cc75a5e4)" style="fill: none; stroke: #b0b0b0; stroke-width: 0.8; stroke-linecap: square"/>
     </g>
     <g id="line2d_2">
      <defs>
       <path id="m63532ba4bd" d="M 0 0 
L 0 3.5 
" style="stroke: #000000; stroke-width: 0.8"/>
      </defs>
      <g>
       <use xlink:href="#m63532ba4bd" x="117.775008" y="173.52" style="stroke: #000000; stroke-width: 0.8"/>
      </g>
     </g>
     <g id="text_1">
      <!-- 200 -->
      <g transform="translate(108.231258 188.118438) scale(0.1 -0.1)">
       <defs>
        <path id="DejaVuSans-32" d="M 1228 531 
L 3431 531 
L 3431 0 
L 469 0 
L 469 531 
Q 828 903 1448 1529 
Q 2069 2156 2228 2338 
Q 2531 2678 2651 2914 
Q 2772 3150 2772 3378 
Q 2772 3750 2511 3984 
Q 2250 4219 1831 4219 
Q 1534 4219 1204 4116 
Q 875 4013 500 3803 
L 500 4441 
Q 881 4594 1212 4672 
Q 1544 4750 1819 4750 
Q 2544 4750 2975 4387 
Q 3406 4025 3406 3419 
Q 3406 3131 3298 2873 
Q 3191 2616 2906 2266 
Q 2828 2175 2409 1742 
Q 1991 1309 1228 531 
z
" transform="scale(0.015625)"/>
        <path id="DejaVuSans-30" d="M 2034 4250 
Q 1547 4250 1301 3770 
Q 1056 3291 1056 2328 
Q 1056 1369 1301 889 
Q 1547 409 2034 409 
Q 2525 409 2770 889 
Q 3016 1369 3016 2328 
Q 3016 3291 2770 3770 
Q 2525 4250 2034 4250 
z
M 2034 4750 
Q 2819 4750 3233 4129 
Q 3647 3509 3647 2328 
Q 3647 1150 3233 529 
Q 2819 -91 2034 -91 
Q 1250 -91 836 529 
Q 422 1150 422 2328 
Q 422 3509 836 4129 
Q 1250 4750 2034 4750 
z
" transform="scale(0.015625)"/>
       </defs>
       <use xlink:href="#DejaVuSans-32"/>
       <use xlink:href="#DejaVuSans-30" x="63.623047"/>
       <use xlink:href="#DejaVuSans-30" x="127.246094"/>
      </g>
     </g>
    </g>
    <g id="xtick_2">
     <g id="line2d_3">
      <path d="M 185.07149 173.52 
L 185.07149 7.2 
" clip-path="url(#pb0cc75a5e4)" style="fill: none; stroke: #b0b0b0; stroke-width: 0.8; stroke-linecap: square"/>
     </g>
     <g id="line2d_4">
      <g>
       <use xlink:href="#m63532ba4bd" x="185.07149" y="173.52" style="stroke: #000000; stroke-width: 0.8"/>
      </g>
     </g>
     <g id="text_2">
      <!-- 400 -->
      <g transform="translate(175.52774 188.118438) scale(0.1 -0.1)">
       <defs>
        <path id="DejaVuSans-34" d="M 2419 4116 
L 825 1625 
L 2419 1625 
L 2419 4116 
z
M 2253 4666 
L 3047 4666 
L 3047 1625 
L 3713 1625 
L 3713 1100 
L 3047 1100 
L 3047 0 
L 2419 0 
L 2419 1100 
L 313 1100 
L 313 1709 
L 2253 4666 
z
" transform="scale(0.015625)"/>
       </defs>
       <use xlink:href="#DejaVuSans-34"/>
       <use xlink:href="#DejaVuSans-30" x="63.623047"/>
       <use xlink:href="#DejaVuSans-30" x="127.246094"/>
      </g>
     </g>
    </g>
    <g id="xtick_3">
     <g id="line2d_5">
      <path d="M 252.367973 173.52 
L 252.367973 7.2 
" clip-path="url(#pb0cc75a5e4)" style="fill: none; stroke: #b0b0b0; stroke-width: 0.8; stroke-linecap: square"/>
     </g>
     <g id="line2d_6">
      <g>
       <use xlink:href="#m63532ba4bd" x="252.367973" y="173.52" style="stroke: #000000; stroke-width: 0.8"/>
      </g>
     </g>
     <g id="text_3">
      <!-- 600 -->
      <g transform="translate(242.824223 188.118438) scale(0.1 -0.1)">
       <defs>
        <path id="DejaVuSans-36" d="M 2113 2584 
Q 1688 2584 1439 2293 
Q 1191 2003 1191 1497 
Q 1191 994 1439 701 
Q 1688 409 2113 409 
Q 2538 409 2786 701 
Q 3034 994 3034 1497 
Q 3034 2003 2786 2293 
Q 2538 2584 2113 2584 
z
M 3366 4563 
L 3366 3988 
Q 3128 4100 2886 4159 
Q 2644 4219 2406 4219 
Q 1781 4219 1451 3797 
Q 1122 3375 1075 2522 
Q 1259 2794 1537 2939 
Q 1816 3084 2150 3084 
Q 2853 3084 3261 2657 
Q 3669 2231 3669 1497 
Q 3669 778 3244 343 
Q 2819 -91 2113 -91 
Q 1303 -91 875 529 
Q 447 1150 447 2328 
Q 447 3434 972 4092 
Q 1497 4750 2381 4750 
Q 2619 4750 2861 4703 
Q 3103 4656 3366 4563 
z
" transform="scale(0.015625)"/>
       </defs>
       <use xlink:href="#DejaVuSans-36"/>
       <use xlink:href="#DejaVuSans-30" x="63.623047"/>
       <use xlink:href="#DejaVuSans-30" x="127.246094"/>
      </g>
     </g>
    </g>
    <g id="xtick_4">
     <g id="line2d_7">
      <path d="M 319.664455 173.52 
L 319.664455 7.2 
" clip-path="url(#pb0cc75a5e4)" style="fill: none; stroke: #b0b0b0; stroke-width: 0.8; stroke-linecap: square"/>
     </g>
     <g id="line2d_8">
      <g>
       <use xlink:href="#m63532ba4bd" x="319.664455" y="173.52" style="stroke: #000000; stroke-width: 0.8"/>
      </g>
     </g>
     <g id="text_4">
      <!-- 800 -->
      <g transform="translate(310.120705 188.118438) scale(0.1 -0.1)">
       <defs>
        <path id="DejaVuSans-38" d="M 2034 2216 
Q 1584 2216 1326 1975 
Q 1069 1734 1069 1313 
Q 1069 891 1326 650 
Q 1584 409 2034 409 
Q 2484 409 2743 651 
Q 3003 894 3003 1313 
Q 3003 1734 2745 1975 
Q 2488 2216 2034 2216 
z
M 1403 2484 
Q 997 2584 770 2862 
Q 544 3141 544 3541 
Q 544 4100 942 4425 
Q 1341 4750 2034 4750 
Q 2731 4750 3128 4425 
Q 3525 4100 3525 3541 
Q 3525 3141 3298 2862 
Q 3072 2584 2669 2484 
Q 3125 2378 3379 2068 
Q 3634 1759 3634 1313 
Q 3634 634 3220 271 
Q 2806 -91 2034 -91 
Q 1263 -91 848 271 
Q 434 634 434 1313 
Q 434 1759 690 2068 
Q 947 2378 1403 2484 
z
M 1172 3481 
Q 1172 3119 1398 2916 
Q 1625 2713 2034 2713 
Q 2441 2713 2670 2916 
Q 2900 3119 2900 3481 
Q 2900 3844 2670 4047 
Q 2441 4250 2034 4250 
Q 1625 4250 1398 4047 
Q 1172 3844 1172 3481 
z
" transform="scale(0.015625)"/>
       </defs>
       <use xlink:href="#DejaVuSans-38"/>
       <use xlink:href="#DejaVuSans-30" x="63.623047"/>
       <use xlink:href="#DejaVuSans-30" x="127.246094"/>
      </g>
     </g>
    </g>
    <g id="xtick_5">
     <g id="line2d_9">
      <path d="M 386.960938 173.52 
L 386.960938 7.2 
" clip-path="url(#pb0cc75a5e4)" style="fill: none; stroke: #b0b0b0; stroke-width: 0.8; stroke-linecap: square"/>
     </g>
     <g id="line2d_10">
      <g>
       <use xlink:href="#m63532ba4bd" x="386.960938" y="173.52" style="stroke: #000000; stroke-width: 0.8"/>
      </g>
     </g>
     <g id="text_5">
      <!-- 1000 -->
      <g transform="translate(374.235938 188.118438) scale(0.1 -0.1)">
       <defs>
        <path id="DejaVuSans-31" d="M 794 531 
L 1825 531 
L 1825 4091 
L 703 3866 
L 703 4441 
L 1819 4666 
L 2450 4666 
L 2450 531 
L 3481 531 
L 3481 0 
L 794 0 
L 794 531 
z
" transform="scale(0.015625)"/>
       </defs>
       <use xlink:href="#DejaVuSans-31"/>
       <use xlink:href="#DejaVuSans-30" x="63.623047"/>
       <use xlink:href="#DejaVuSans-30" x="127.246094"/>
       <use xlink:href="#DejaVuSans-30" x="190.869141"/>
      </g>
     </g>
    </g>
    <g id="text_6">
     <!-- time -->
     <g transform="translate(208.264844 201.796563) scale(0.1 -0.1)">
      <defs>
       <path id="DejaVuSans-74" d="M 1172 4494 
L 1172 3500 
L 2356 3500 
L 2356 3053 
L 1172 3053 
L 1172 1153 
Q 1172 725 1289 603 
Q 1406 481 1766 481 
L 2356 481 
L 2356 0 
L 1766 0 
Q 1100 0 847 248 
Q 594 497 594 1153 
L 594 3053 
L 172 3053 
L 172 3500 
L 594 3500 
L 594 4494 
L 1172 4494 
z
" transform="scale(0.015625)"/>
       <path id="DejaVuSans-69" d="M 603 3500 
L 1178 3500 
L 1178 0 
L 603 0 
L 603 3500 
z
M 603 4863 
L 1178 4863 
L 1178 4134 
L 603 4134 
L 603 4863 
z
" transform="scale(0.015625)"/>
       <path id="DejaVuSans-6d" d="M 3328 2828 
Q 3544 3216 3844 3400 
Q 4144 3584 4550 3584 
Q 5097 3584 5394 3201 
Q 5691 2819 5691 2113 
L 5691 0 
L 5113 0 
L 5113 2094 
Q 5113 2597 4934 2840 
Q 4756 3084 4391 3084 
Q 3944 3084 3684 2787 
Q 3425 2491 3425 1978 
L 3425 0 
L 2847 0 
L 2847 2094 
Q 2847 2600 2669 2842 
Q 2491 3084 2119 3084 
Q 1678 3084 1418 2786 
Q 1159 2488 1159 1978 
L 1159 0 
L 581 0 
L 581 3500 
L 1159 3500 
L 1159 2956 
Q 1356 3278 1631 3431 
Q 1906 3584 2284 3584 
Q 2666 3584 2933 3390 
Q 3200 3197 3328 2828 
z
" transform="scale(0.015625)"/>
       <path id="DejaVuSans-65" d="M 3597 1894 
L 3597 1613 
L 953 1613 
Q 991 1019 1311 708 
Q 1631 397 2203 397 
Q 2534 397 2845 478 
Q 3156 559 3463 722 
L 3463 178 
Q 3153 47 2828 -22 
Q 2503 -91 2169 -91 
Q 1331 -91 842 396 
Q 353 884 353 1716 
Q 353 2575 817 3079 
Q 1281 3584 2069 3584 
Q 2775 3584 3186 3129 
Q 3597 2675 3597 1894 
z
M 3022 2063 
Q 3016 2534 2758 2815 
Q 2500 3097 2075 3097 
Q 1594 3097 1305 2825 
Q 1016 2553 972 2059 
L 3022 2063 
z
" transform="scale(0.015625)"/>
      </defs>
      <use xlink:href="#DejaVuSans-74"/>
      <use xlink:href="#DejaVuSans-69" x="39.208984"/>
      <use xlink:href="#DejaVuSans-6d" x="66.992188"/>
      <use xlink:href="#DejaVuSans-65" x="164.404297"/>
     </g>
    </g>
   </g>
   <g id="matplotlib.axis_2">
    <g id="ytick_1">
     <g id="line2d_11">
      <path d="M 52.160938 160.682574 
L 386.960938 160.682574 
" clip-path="url(#pb0cc75a5e4)" style="fill: none; stroke: #b0b0b0; stroke-width: 0.8; stroke-linecap: square"/>
     </g>
     <g id="line2d_12">
      <defs>
       <path id="m67b58b3b09" d="M 0 0 
L -3.5 0 
" style="stroke: #000000; stroke-width: 0.8"/>
      </defs>
      <g>
       <use xlink:href="#m67b58b3b09" x="52.160938" y="160.682574" style="stroke: #000000; stroke-width: 0.8"/>
      </g>
     </g>
     <g id="text_7">
      <!-- −1.0 -->
      <g transform="translate(20.878125 164.481793) scale(0.1 -0.1)">
       <defs>
        <path id="DejaVuSans-2212" d="M 678 2272 
L 4684 2272 
L 4684 1741 
L 678 1741 
L 678 2272 
z
" transform="scale(0.015625)"/>
        <path id="DejaVuSans-2e" d="M 684 794 
L 1344 794 
L 1344 0 
L 684 0 
L 684 794 
z
" transform="scale(0.015625)"/>
       </defs>
       <use xlink:href="#DejaVuSans-2212"/>
       <use xlink:href="#DejaVuSans-31" x="83.789062"/>
       <use xlink:href="#DejaVuSans-2e" x="147.412109"/>
       <use xlink:href="#DejaVuSans-30" x="179.199219"/>
      </g>
     </g>
    </g>
    <g id="ytick_2">
     <g id="line2d_13">
      <path d="M 52.160938 127.564844 
L 386.960938 127.564844 
" clip-path="url(#pb0cc75a5e4)" style="fill: none; stroke: #b0b0b0; stroke-width: 0.8; stroke-linecap: square"/>
     </g>
     <g id="line2d_14">
      <g>
       <use xlink:href="#m67b58b3b09" x="52.160938" y="127.564844" style="stroke: #000000; stroke-width: 0.8"/>
      </g>
     </g>
     <g id="text_8">
      <!-- −0.5 -->
      <g transform="translate(20.878125 131.364063) scale(0.1 -0.1)">
       <defs>
        <path id="DejaVuSans-35" d="M 691 4666 
L 3169 4666 
L 3169 4134 
L 1269 4134 
L 1269 2991 
Q 1406 3038 1543 3061 
Q 1681 3084 1819 3084 
Q 2600 3084 3056 2656 
Q 3513 2228 3513 1497 
Q 3513 744 3044 326 
Q 2575 -91 1722 -91 
Q 1428 -91 1123 -41 
Q 819 9 494 109 
L 494 744 
Q 775 591 1075 516 
Q 1375 441 1709 441 
Q 2250 441 2565 725 
Q 2881 1009 2881 1497 
Q 2881 1984 2565 2268 
Q 2250 2553 1709 2553 
Q 1456 2553 1204 2497 
Q 953 2441 691 2322 
L 691 4666 
z
" transform="scale(0.015625)"/>
       </defs>
       <use xlink:href="#DejaVuSans-2212"/>
       <use xlink:href="#DejaVuSans-30" x="83.789062"/>
       <use xlink:href="#DejaVuSans-2e" x="147.412109"/>
       <use xlink:href="#DejaVuSans-35" x="179.199219"/>
      </g>
     </g>
    </g>
    <g id="ytick_3">
     <g id="line2d_15">
      <path d="M 52.160938 94.447114 
L 386.960938 94.447114 
" clip-path="url(#pb0cc75a5e4)" style="fill: none; stroke: #b0b0b0; stroke-width: 0.8; stroke-linecap: square"/>
     </g>
     <g id="line2d_16">
      <g>
       <use xlink:href="#m67b58b3b09" x="52.160938" y="94.447114" style="stroke: #000000; stroke-width: 0.8"/>
      </g>
     </g>
     <g id="text_9">
      <!-- 0.0 -->
      <g transform="translate(29.257812 98.246333) scale(0.1 -0.1)">
       <use xlink:href="#DejaVuSans-30"/>
       <use xlink:href="#DejaVuSans-2e" x="63.623047"/>
       <use xlink:href="#DejaVuSans-30" x="95.410156"/>
      </g>
     </g>
    </g>
    <g id="ytick_4">
     <g id="line2d_17">
      <path d="M 52.160938 61.329384 
L 386.960938 61.329384 
" clip-path="url(#pb0cc75a5e4)" style="fill: none; stroke: #b0b0b0; stroke-width: 0.8; stroke-linecap: square"/>
     </g>
     <g id="line2d_18">
      <g>
       <use xlink:href="#m67b58b3b09" x="52.160938" y="61.329384" style="stroke: #000000; stroke-width: 0.8"/>
      </g>
     </g>
     <g id="text_10">
      <!-- 0.5 -->
      <g transform="translate(29.257812 65.128603) scale(0.1 -0.1)">
       <use xlink:href="#DejaVuSans-30"/>
       <use xlink:href="#DejaVuSans-2e" x="63.623047"/>
       <use xlink:href="#DejaVuSans-35" x="95.410156"/>
      </g>
     </g>
    </g>
    <g id="ytick_5">
     <g id="line2d_19">
      <path d="M 52.160938 28.211654 
L 386.960938 28.211654 
" clip-path="url(#pb0cc75a5e4)" style="fill: none; stroke: #b0b0b0; stroke-width: 0.8; stroke-linecap: square"/>
     </g>
     <g id="line2d_20">
      <g>
       <use xlink:href="#m67b58b3b09" x="52.160938" y="28.211654" style="stroke: #000000; stroke-width: 0.8"/>
      </g>
     </g>
     <g id="text_11">
      <!-- 1.0 -->
      <g transform="translate(29.257812 32.010873) scale(0.1 -0.1)">
       <use xlink:href="#DejaVuSans-31"/>
       <use xlink:href="#DejaVuSans-2e" x="63.623047"/>
       <use xlink:href="#DejaVuSans-30" x="95.410156"/>
      </g>
     </g>
    </g>
    <g id="text_12">
     <!-- x -->
     <g transform="translate(14.798438 93.319375) rotate(-90) scale(0.1 -0.1)">
      <defs>
       <path id="DejaVuSans-78" d="M 3513 3500 
L 2247 1797 
L 3578 0 
L 2900 0 
L 1881 1375 
L 863 0 
L 184 0 
L 1544 1831 
L 300 3500 
L 978 3500 
L 1906 2253 
L 2834 3500 
L 3513 3500 
z
" transform="scale(0.015625)"/>
      </defs>
      <use xlink:href="#DejaVuSans-78"/>
     </g>
    </g>
   </g>
   <g id="line2d_21">
    <path d="M 52.160938 96.366131 
L 52.49742 95.486405 
L 52.833902 99.117497 
L 53.170385 92.444154 
L 53.506867 89.113518 
L 53.84335 92.639102 
L 54.179832 80.379135 
L 54.516314 81.210017 
L 54.852797 81.38407 
L 55.525762 84.780648 
L 55.862244 78.01181 
L 56.198726 78.1967 
L 56.535209 71.920129 
L 57.208174 77.790555 
L 57.544656 79.56048 
L 57.881139 80.468716 
L 58.217621 84.956923 
L 58.554103 87.190841 
L 58.890586 98.755718 
L 60.236515 69.678229 
L 60.90948 88.794373 
L 61.245963 76.256555 
L 61.582445 74.088437 
L 61.918927 75.402118 
L 62.25541 76.105744 
L 62.928375 68.703465 
L 63.264857 72.073484 
L 63.60134 70.066657 
L 63.937822 67.334666 
L 64.274304 70.251058 
L 64.947269 70.654504 
L 65.283752 69.507224 
L 65.620234 71.391547 
L 65.956716 61.946832 
L 66.293199 67.954189 
L 66.629681 62.741734 
L 66.966164 55.493241 
L 67.302646 55.056737 
L 67.975611 49.295361 
L 68.312093 52.01182 
L 68.648576 51.176274 
L 68.985058 48.789223 
L 69.658023 53.682487 
L 69.994505 55.602122 
L 70.330988 59.335449 
L 70.66747 61.116692 
L 71.003953 60.879287 
L 71.340435 55.471113 
L 72.0134 50.102861 
L 72.349882 49.862506 
L 72.686365 46.488592 
L 73.022847 52.337924 
L 73.359329 48.967085 
L 73.695812 59.145264 
L 74.032294 59.162327 
L 74.368777 53.909173 
L 74.705259 55.819831 
L 75.041742 50.144598 
L 75.378224 51.548498 
L 76.051189 42.58495 
L 76.387671 45.878058 
L 76.724154 42.058793 
L 77.060636 48.796744 
L 77.397118 52.84897 
L 77.733601 51.376589 
L 78.070083 55.244699 
L 78.406566 53.627764 
L 78.743048 55.929769 
L 79.07953 47.123267 
L 79.416013 50.045418 
L 80.088978 28.642579 
L 80.42546 29.18066 
L 80.761943 26.565655 
L 81.098425 30.440124 
L 81.434907 29.662976 
L 81.77139 33.315757 
L 82.107872 33.713741 
L 82.780837 42.18885 
L 83.117319 40.135758 
L 83.453802 42.26544 
L 83.790284 40.871587 
L 84.126767 34.811545 
L 84.463249 35.828353 
L 84.799731 34.865616 
L 85.136214 36.463593 
L 85.809179 46.181154 
L 86.145661 44.055511 
L 86.482144 39.501297 
L 86.818626 43.168507 
L 87.155108 38.531674 
L 87.491591 35.956267 
L 87.828073 41.789768 
L 88.164556 36.705124 
L 88.501038 38.310282 
L 88.83752 42.871595 
L 89.174003 39.013836 
L 89.510485 42.030624 
L 89.846968 39.081026 
L 90.18345 42.401209 
L 90.519932 39.023923 
L 90.856415 28.570269 
L 91.192897 26.876373 
L 91.52938 28.053018 
L 91.865862 29.794581 
L 92.202345 37.306036 
L 92.538827 40.47095 
L 92.875309 30.177792 
L 93.211792 24.954523 
L 93.548274 25.63015 
L 93.884757 23.549475 
L 94.221239 22.862099 
L 94.557721 29.227388 
L 94.894204 28.76495 
L 95.230686 28.591331 
L 95.567169 34.946806 
L 96.240133 31.114784 
L 96.913098 21.685478 
L 97.249581 21.288078 
L 97.586063 22.708777 
L 98.259028 33.714318 
L 98.59551 27.166334 
L 98.931993 24.504837 
L 99.268475 23.380487 
L 99.604958 24.174292 
L 100.277922 32.184159 
L 100.614405 32.015045 
L 100.950887 25.014903 
L 101.28737 26.413588 
L 101.623852 26.284222 
L 102.296817 38.591257 
L 102.969782 28.669579 
L 103.306264 26.537679 
L 103.642747 16.789929 
L 103.979229 17.303358 
L 104.315711 18.87685 
L 104.652194 15.034098 
L 104.988676 18.590924 
L 105.325159 18.905614 
L 105.661641 22.297891 
L 105.998123 18.958177 
L 106.334606 19.693379 
L 106.671088 23.983433 
L 107.007571 20.516343 
L 107.344053 26.141496 
L 108.017018 21.177852 
L 108.3535 29.962609 
L 108.689983 26.920172 
L 109.026465 28.04603 
L 109.362948 32.359661 
L 109.69943 26.148341 
L 110.372395 31.384961 
L 110.708877 27.909928 
L 111.04536 28.861169 
L 111.381842 34.339901 
L 111.718324 34.774715 
L 112.054807 33.505724 
L 112.391289 29.350169 
L 112.727772 19.081164 
L 113.400736 28.629583 
L 114.073701 36.325652 
L 114.410184 27.80774 
L 114.746666 24.342727 
L 115.083149 34.493361 
L 115.419631 33.808681 
L 115.756113 43.696904 
L 116.092596 44.491901 
L 116.429078 30.400242 
L 116.765561 33.494532 
L 117.102043 28.216474 
L 117.438525 28.691325 
L 117.775008 33.087811 
L 118.11149 32.66989 
L 118.447973 33.2285 
L 118.784455 34.815896 
L 119.120937 32.184589 
L 119.45742 30.571662 
L 119.793902 27.87491 
L 120.130385 28.243632 
L 120.80335 34.158003 
L 121.476314 41.491012 
L 121.812797 38.31194 
L 122.149279 40.853822 
L 122.485762 37.245692 
L 122.822244 30.809999 
L 123.158726 34.227976 
L 123.495209 28.991514 
L 123.831691 33.767931 
L 124.168174 31.035719 
L 124.504656 34.941902 
L 124.841139 36.151429 
L 125.177621 37.976452 
L 125.514103 37.003853 
L 125.850586 27.280532 
L 126.187068 26.943449 
L 126.523551 24.173692 
L 127.196515 36.292975 
L 127.532998 38.610294 
L 127.86948 38.361459 
L 128.205963 34.984694 
L 128.542445 27.737798 
L 129.551892 40.341865 
L 129.888375 41.665803 
L 130.224857 37.784254 
L 130.56134 37.580927 
L 130.897822 39.127679 
L 131.570787 47.039495 
L 131.907269 41.468362 
L 132.243752 42.874828 
L 132.580234 46.619837 
L 132.916716 42.25694 
L 133.253199 47.698288 
L 133.589681 50.581912 
L 133.926164 49.94165 
L 134.262646 60.790308 
L 134.599128 59.184124 
L 134.935611 50.654025 
L 135.272093 53.213175 
L 135.608576 48.488295 
L 135.945058 55.359382 
L 136.281541 55.500462 
L 136.618023 51.146041 
L 136.954505 53.626935 
L 137.290988 55.185677 
L 137.62747 61.689558 
L 137.963953 61.449462 
L 138.300435 59.756291 
L 138.636917 60.662577 
L 138.9734 53.619315 
L 139.309882 58.722286 
L 139.646365 55.975676 
L 140.319329 73.905724 
L 140.655812 65.726652 
L 140.992294 68.202502 
L 141.328777 48.993173 
L 141.665259 51.095634 
L 142.001742 52.40725 
L 142.338224 54.52251 
L 142.674706 59.439962 
L 143.347671 59.749907 
L 144.020636 72.32394 
L 144.357118 74.808119 
L 144.693601 76.448192 
L 145.030083 76.750482 
L 145.366566 81.212553 
L 146.03953 85.82823 
L 146.376013 89.818645 
L 146.712495 83.743271 
L 147.048978 83.225572 
L 147.38546 84.862834 
L 147.721943 85.288031 
L 148.058425 81.772523 
L 148.73139 72.423533 
L 149.067872 75.253859 
L 149.404355 69.736757 
L 149.740837 73.432077 
L 150.077319 73.952015 
L 150.413802 78.769027 
L 150.750284 90.17092 
L 151.086767 95.005318 
L 151.423249 88.737772 
L 151.759731 91.553199 
L 152.096214 89.864914 
L 152.432696 92.659025 
L 152.769179 88.470904 
L 153.105661 81.565472 
L 153.442144 83.486469 
L 153.778626 83.278663 
L 154.115108 81.881479 
L 154.451591 78.625055 
L 154.788073 80.571412 
L 155.124556 77.906696 
L 155.461038 78.876464 
L 155.79752 85.244193 
L 156.134003 85.842913 
L 156.470485 85.430242 
L 156.806968 89.015833 
L 157.14345 83.672442 
L 157.816415 94.432425 
L 158.152897 97.563639 
L 158.48938 96.627655 
L 158.825862 99.940958 
L 159.162345 114.517453 
L 159.498827 113.332412 
L 159.835309 101.140098 
L 160.171792 97.28088 
L 160.508274 94.89423 
L 160.844757 103.452135 
L 161.181239 102.437975 
L 161.517721 95.514056 
L 161.854204 95.472856 
L 162.190686 109.001513 
L 162.527169 110.739317 
L 162.863651 117.449856 
L 163.200133 112.04108 
L 163.536616 102.048892 
L 163.873098 100.889306 
L 164.209581 111.66097 
L 164.546063 109.055039 
L 164.882546 100.400875 
L 165.219028 98.231622 
L 165.55551 108.437983 
L 165.891993 109.589945 
L 166.228475 113.63939 
L 166.564958 113.813383 
L 166.90144 115.618913 
L 167.237922 116.812994 
L 167.574405 113.178766 
L 167.910887 114.999702 
L 168.24737 109.725135 
L 168.583852 113.545235 
L 168.920334 112.541284 
L 169.256817 116.192075 
L 169.593299 117.664049 
L 170.266264 128.873034 
L 170.602747 131.04163 
L 170.939229 129.612191 
L 171.275711 127.109822 
L 171.612194 127.109988 
L 171.948676 120.503314 
L 172.285159 123.613754 
L 172.958123 117.244326 
L 173.294606 123.08259 
L 173.631088 123.91062 
L 174.304053 135.910681 
L 174.640535 136.880335 
L 174.977018 133.151812 
L 175.3135 133.347184 
L 175.649983 129.006012 
L 175.986465 127.595211 
L 176.322948 129.750029 
L 176.65943 130.432703 
L 176.995912 131.734561 
L 177.332395 131.58962 
L 177.668877 137.305275 
L 178.00536 139.262037 
L 178.341842 142.260529 
L 178.678324 140.64502 
L 179.014807 126.100089 
L 179.351289 129.905294 
L 179.687772 129.987814 
L 180.024254 134.478917 
L 180.360736 135.43679 
L 180.697219 132.314316 
L 181.033701 133.697051 
L 181.370184 134.167479 
L 181.706666 126.917028 
L 182.043149 132.51362 
L 182.379631 135.751749 
L 182.716113 136.426314 
L 183.052596 134.878736 
L 183.389078 136.025305 
L 183.725561 134.330237 
L 184.062043 130.761109 
L 184.398525 135.635071 
L 185.407973 140.311111 
L 185.744455 143.112495 
L 186.080938 143.912893 
L 186.41742 147.796786 
L 186.753902 146.097758 
L 187.090385 147.072797 
L 187.426867 144.460978 
L 187.76335 137.328371 
L 188.099832 141.153322 
L 188.772797 144.06237 
L 189.109279 147.799132 
L 189.445762 143.988192 
L 189.782244 147.69748 
L 190.455209 140.764588 
L 190.791691 140.4997 
L 191.128174 136.83245 
L 191.801139 141.36413 
L 192.137621 144.346886 
L 192.474103 150.356177 
L 192.810586 149.798677 
L 193.147068 144.520473 
L 193.483551 144.116922 
L 193.820033 141.571957 
L 194.156515 143.185986 
L 194.492998 147.809321 
L 194.82948 144.855357 
L 195.502445 143.241297 
L 195.838927 141.255482 
L 196.17541 140.014641 
L 196.511892 143.414142 
L 196.848375 142.638292 
L 197.184857 144.167811 
L 198.194304 157.633137 
L 198.530787 157.60851 
L 199.203752 143.367623 
L 199.540234 137.62918 
L 199.876716 140.678333 
L 200.213199 142.396272 
L 200.549681 140.778026 
L 201.222646 146.728 
L 201.559128 147.676422 
L 201.895611 157.024206 
L 202.232093 152.452664 
L 202.568576 153.212947 
L 202.905058 145.049426 
L 203.578023 139.34201 
L 203.914505 139.634829 
L 204.250988 141.406704 
L 204.58747 141.756634 
L 204.923953 147.701961 
L 205.260435 151.452659 
L 206.269882 165.96 
L 206.606365 162.485109 
L 206.942847 161.202431 
L 207.279329 157.06626 
L 207.615812 155.363489 
L 207.952294 156.902839 
L 208.625259 145.501927 
L 208.961742 141.318211 
L 209.298224 143.442365 
L 209.634706 143.560733 
L 209.971189 147.345936 
L 210.307671 139.744057 
L 210.644154 142.081127 
L 210.980636 145.814742 
L 211.317118 144.052149 
L 211.653601 153.376558 
L 211.990083 153.252217 
L 212.326566 146.257172 
L 212.663048 148.894709 
L 212.99953 146.120439 
L 213.336013 146.508767 
L 213.672495 145.277589 
L 214.008978 146.285266 
L 214.34546 148.46162 
L 214.681943 156.830394 
L 215.018425 156.677119 
L 215.69139 157.008509 
L 216.364355 133.618692 
L 216.700837 137.678383 
L 217.037319 136.300327 
L 217.373802 141.744759 
L 218.046767 146.67843 
L 218.383249 146.281326 
L 218.719731 143.744718 
L 219.056214 143.690509 
L 219.729179 146.858874 
L 220.402144 137.74307 
L 221.075108 143.282347 
L 221.748073 154.903744 
L 222.084556 156.055066 
L 222.421038 160.978283 
L 223.094003 151.797819 
L 223.430485 134.98462 
L 223.766968 130.271742 
L 224.10345 132.118901 
L 224.439932 133.270673 
L 224.776415 142.106832 
L 225.112897 145.306066 
L 225.44938 145.742882 
L 225.785862 145.921068 
L 226.122345 146.649088 
L 226.458827 144.403721 
L 226.795309 148.774751 
L 227.131792 145.58821 
L 227.468274 149.169197 
L 227.804757 148.903154 
L 228.141239 145.967982 
L 228.477721 137.238279 
L 228.814204 134.063751 
L 229.150686 137.474346 
L 229.487169 137.8327 
L 229.823651 139.343921 
L 230.160133 143.07722 
L 230.496616 137.774291 
L 230.833098 134.907304 
L 231.169581 134.624505 
L 231.506063 139.383708 
L 231.842546 146.444775 
L 232.179028 148.510333 
L 232.51551 152.333551 
L 232.851993 152.968266 
L 233.188475 149.089098 
L 233.524958 146.827121 
L 233.86144 128.083592 
L 234.197922 129.349724 
L 234.534405 128.821955 
L 234.870887 134.983787 
L 235.20737 136.091536 
L 235.543852 139.339373 
L 235.880334 134.941449 
L 236.216817 133.290081 
L 236.553299 137.721443 
L 236.889782 134.482182 
L 237.226264 135.158638 
L 237.562747 137.855093 
L 237.899229 135.03181 
L 238.235711 133.552264 
L 238.572194 135.067626 
L 238.908676 127.523566 
L 239.245159 122.80944 
L 239.581641 122.707591 
L 239.918123 123.808771 
L 240.254606 126.150543 
L 240.591088 124.598675 
L 241.264053 128.945518 
L 242.2735 133.548486 
L 242.609983 137.603357 
L 242.946465 136.789094 
L 243.282948 124.395747 
L 243.61943 122.603666 
L 243.955912 122.043682 
L 244.292395 120.63524 
L 244.628877 121.579931 
L 244.96536 127.874216 
L 245.301842 128.91211 
L 245.638324 122.826906 
L 245.974807 128.650026 
L 246.311289 125.273189 
L 246.647772 115.087242 
L 246.984254 114.417464 
L 247.320736 117.791548 
L 247.657219 112.769804 
L 247.993701 115.527171 
L 248.330184 114.391482 
L 248.666666 117.007337 
L 249.003149 118.579312 
L 249.339631 118.862585 
L 249.676113 119.621545 
L 250.012596 116.195889 
L 250.685561 121.669883 
L 251.022043 123.949377 
L 251.358525 122.407465 
L 251.695008 118.475537 
L 252.03149 112.837565 
L 252.367973 96.473045 
L 252.704455 87.713411 
L 253.040938 95.105313 
L 253.713902 120.836964 
L 254.386867 117.943192 
L 254.72335 118.077495 
L 255.059832 117.040598 
L 255.732797 106.729618 
L 256.069279 107.708252 
L 256.405762 108.226109 
L 256.742244 107.732384 
L 257.078726 88.145227 
L 257.751691 102.451372 
L 258.088174 103.797151 
L 258.424656 101.147115 
L 259.097621 107.704823 
L 259.434103 103.535784 
L 259.770586 108.296181 
L 260.107068 114.892954 
L 260.443551 110.454011 
L 261.116515 87.22032 
L 261.452998 78.697012 
L 261.78948 76.298883 
L 262.125963 82.580406 
L 262.798927 100.629194 
L 263.13541 106.463652 
L 263.471892 100.225003 
L 263.808375 99.194025 
L 264.144857 101.10499 
L 264.48134 93.610183 
L 265.154304 95.877284 
L 265.490787 95.824586 
L 265.827269 91.804706 
L 266.163752 80.091425 
L 266.500234 73.811329 
L 266.836716 71.640287 
L 267.173199 68.639658 
L 268.182646 83.286733 
L 268.519128 81.98658 
L 268.855611 78.613653 
L 269.192093 69.217218 
L 269.865058 78.229702 
L 270.201541 70.92734 
L 270.538023 70.281544 
L 270.874505 62.996218 
L 271.210988 70.85683 
L 271.54747 74.895467 
L 271.883953 71.552828 
L 272.220435 72.7154 
L 272.556917 72.642898 
L 272.8934 71.625904 
L 273.229882 71.905648 
L 273.566365 69.194387 
L 273.902847 64.557789 
L 274.239329 61.54715 
L 274.912294 64.847329 
L 275.248777 64.701693 
L 275.585259 66.221753 
L 275.921742 62.202769 
L 276.258224 60.5458 
L 276.594706 61.701264 
L 276.931189 58.458662 
L 277.267671 58.549236 
L 277.604154 62.699965 
L 277.940636 65.364565 
L 278.277118 74.719146 
L 278.613601 79.212931 
L 278.950083 70.914248 
L 279.286566 58.567167 
L 279.95953 44.991094 
L 280.632495 53.647437 
L 280.968978 46.779231 
L 281.30546 59.847023 
L 281.978425 51.538841 
L 282.314907 52.919559 
L 282.65139 47.072184 
L 282.987872 46.20494 
L 283.324355 44.375109 
L 283.660837 47.571303 
L 283.997319 43.296602 
L 284.333802 49.953554 
L 284.670284 50.644269 
L 285.006767 48.360705 
L 285.343249 47.592211 
L 285.679731 42.375974 
L 286.016214 48.520858 
L 286.352696 49.69826 
L 286.689179 52.552013 
L 287.362144 44.57859 
L 288.035108 46.98865 
L 288.371591 50.001975 
L 288.708073 48.631238 
L 289.044556 45.944996 
L 289.381038 47.547216 
L 289.71752 46.637579 
L 290.054003 46.929387 
L 290.390485 47.024888 
L 290.726968 53.209393 
L 291.399932 46.455267 
L 291.736415 48.314854 
L 292.072897 42.041485 
L 292.40938 46.736025 
L 292.745862 46.833768 
L 293.082345 44.372566 
L 293.418827 40.499581 
L 293.755309 42.392678 
L 294.091792 41.871952 
L 294.764757 48.847787 
L 295.437721 38.100085 
L 295.774204 37.378362 
L 296.110686 36.282418 
L 296.447169 36.029276 
L 297.120133 38.676201 
L 297.456616 33.048265 
L 297.793098 34.829497 
L 298.129581 39.578826 
L 298.466063 35.741203 
L 298.802546 42.063956 
L 299.139028 43.80079 
L 299.811993 49.034895 
L 301.494405 27.386668 
L 301.830887 29.450431 
L 302.16737 24.861392 
L 302.503852 27.494463 
L 302.840334 31.520068 
L 303.176817 31.628644 
L 303.513299 34.171138 
L 303.849782 39.495335 
L 304.186264 39.15935 
L 304.522747 42.756003 
L 304.859229 45.023211 
L 305.195711 35.917656 
L 305.532194 36.977583 
L 305.868676 33.245263 
L 306.205159 32.268384 
L 306.541641 36.932273 
L 306.878123 35.250604 
L 307.214606 35.068777 
L 307.551088 31.168662 
L 307.887571 33.938667 
L 308.224053 32.984201 
L 308.560535 30.773303 
L 308.897018 31.334838 
L 309.2335 30.468668 
L 309.569983 33.704969 
L 309.906465 33.812925 
L 310.242948 33.776648 
L 310.915912 19.273555 
L 311.252395 25.150468 
L 311.92536 23.927348 
L 312.261842 28.322263 
L 312.598324 27.233315 
L 312.934807 22.190578 
L 313.271289 28.901474 
L 313.944254 19.015083 
L 314.280736 24.934057 
L 314.617219 19.602221 
L 314.953701 27.068283 
L 315.290184 28.728838 
L 315.626666 28.114384 
L 315.963149 32.982559 
L 316.299631 34.489812 
L 316.636113 28.015046 
L 316.972596 24.818406 
L 317.645561 22.00767 
L 317.982043 29.069462 
L 318.655008 26.876673 
L 318.99149 32.75539 
L 319.327973 27.420147 
L 319.664455 28.685071 
L 320.000938 31.09617 
L 320.33742 23.121747 
L 320.673902 30.657877 
L 321.010385 33.721985 
L 321.346867 29.603722 
L 321.68335 32.633948 
L 322.019832 32.25217 
L 322.356314 29.164091 
L 323.029279 35.869759 
L 323.365762 35.18581 
L 323.702244 35.140144 
L 324.038726 32.675733 
L 324.375209 32.20275 
L 324.711691 27.737332 
L 325.048174 26.844569 
L 325.384656 34.274124 
L 326.057621 38.986003 
L 326.394103 38.91438 
L 326.730586 35.624276 
L 327.067068 25.642879 
L 327.403551 27.152555 
L 327.740033 27.154411 
L 328.076515 26.084085 
L 328.412998 29.212378 
L 328.74948 30.462655 
L 329.085963 28.488033 
L 329.758927 29.6254 
L 330.09541 24.517573 
L 330.431892 31.30057 
L 330.768375 26.351818 
L 331.104857 26.520948 
L 331.44134 34.801731 
L 331.777822 36.07566 
L 332.114304 39.904271 
L 332.450787 40.305623 
L 333.123752 25.722919 
L 333.796716 21.547671 
L 334.133199 24.312612 
L 334.469681 29.608854 
L 334.806164 30.559423 
L 335.142646 36.263519 
L 335.479128 39.320801 
L 335.815611 37.670257 
L 336.152093 38.517845 
L 336.825058 40.930704 
L 337.161541 40.264742 
L 337.498023 41.144066 
L 337.834505 34.384761 
L 338.170988 33.907056 
L 338.50747 40.114313 
L 338.843953 39.05135 
L 339.180435 47.585128 
L 339.516917 46.870176 
L 339.8534 42.217614 
L 340.189882 49.529888 
L 340.526365 46.882873 
L 340.862847 52.154795 
L 341.199329 54.322677 
L 341.535812 49.115054 
L 341.872294 55.053362 
L 342.208777 52.215712 
L 342.545259 53.844455 
L 342.881742 54.220145 
L 343.218224 49.179429 
L 343.554706 45.929082 
L 343.891189 46.676956 
L 344.227671 45.323807 
L 344.564154 45.80514 
L 344.900636 49.10235 
L 345.237118 44.537164 
L 345.573601 49.442804 
L 346.246566 41.731654 
L 346.583048 49.739216 
L 346.91953 48.582698 
L 347.256013 51.232801 
L 347.592495 60.308549 
L 347.928978 52.72423 
L 348.26546 51.187068 
L 348.601943 61.192678 
L 348.938425 55.645825 
L 349.274907 58.007957 
L 349.61139 62.87563 
L 349.947872 56.752935 
L 350.284355 59.188644 
L 350.620837 60.136316 
L 350.957319 59.921651 
L 351.293802 58.895182 
L 351.966767 61.452108 
L 352.303249 60.649623 
L 352.976214 63.520647 
L 353.312696 63.578856 
L 353.649179 68.379197 
L 353.985661 70.986452 
L 354.322144 66.893622 
L 354.658626 68.660969 
L 354.995108 63.733443 
L 355.331591 64.372198 
L 355.668073 70.89338 
L 356.004556 68.227831 
L 356.341038 69.411216 
L 356.67752 73.82365 
L 357.014003 73.140674 
L 357.350485 85.006625 
L 358.359932 66.506799 
L 358.696415 63.639077 
L 359.032897 68.371644 
L 359.36938 69.103436 
L 359.705862 72.116602 
L 360.042345 73.705636 
L 360.378827 74.74566 
L 360.715309 79.456987 
L 361.051792 74.793136 
L 361.724757 69.127075 
L 362.061239 72.760847 
L 362.397721 82.654265 
L 362.734204 89.092305 
L 363.070686 77.449117 
L 363.407169 76.71422 
L 363.743651 71.965672 
L 364.416616 81.696913 
L 364.753098 90.803071 
L 365.089581 90.253716 
L 365.762546 94.102684 
L 365.762546 94.102684 
" clip-path="url(#pb0cc75a5e4)" style="fill: none; stroke: #1f77b4; stroke-width: 1.5; stroke-linecap: square"/>
   </g>
   <g id="line2d_22">
    <path d="M 53.170385 94.168505 
L 53.506867 98.959955 
L 53.84335 101.298856 
L 54.179832 84.393061 
L 54.516314 94.22235 
L 54.852797 87.041956 
L 55.189279 73.959396 
L 55.525762 78.171006 
L 55.862244 83.841837 
L 56.198726 84.766568 
L 56.535209 73.137851 
L 56.871691 76.163212 
L 57.544656 66.50713 
L 57.881139 70.853985 
L 58.217621 78.915781 
L 58.554103 75.984352 
L 58.890586 77.657699 
L 59.227068 84.214343 
L 59.900033 103.563699 
L 60.572998 60.229195 
L 60.90948 75.634701 
L 61.245963 71.923909 
L 61.582445 83.609437 
L 61.918927 78.555739 
L 62.25541 68.757828 
L 62.591892 69.035609 
L 62.928375 72.749788 
L 63.264857 71.207377 
L 63.60134 62.828518 
L 63.937822 63.155241 
L 64.274304 70.645287 
L 64.610787 62.002782 
L 64.947269 62.218178 
L 65.620234 70.187255 
L 65.956716 58.175228 
L 66.293199 69.322395 
L 66.629681 65.181984 
L 66.966164 57.574706 
L 67.302646 63.088796 
L 67.639128 56.980245 
L 67.975611 46.126226 
L 68.312093 51.172382 
L 68.648576 50.06637 
L 68.985058 47.62184 
L 69.321541 47.055544 
L 69.658023 48.956489 
L 69.994505 45.476245 
L 70.330988 51.557772 
L 70.66747 50.782621 
L 71.003953 55.623835 
L 71.340435 55.826503 
L 71.676917 60.157339 
L 72.0134 50.787785 
L 72.349882 51.543654 
L 72.686365 45.132213 
L 73.022847 51.37955 
L 73.359329 41.499322 
L 74.032294 50.928328 
L 74.368777 48.602485 
L 74.705259 60.336256 
L 75.041742 49.712666 
L 75.378224 50.873013 
L 75.714706 50.484721 
L 76.051189 49.039009 
L 76.387671 47.072682 
L 77.060636 37.366025 
L 77.397118 48.25194 
L 77.733601 37.711316 
L 78.070083 51.934666 
L 78.406566 48.314317 
L 78.743048 52.473856 
L 79.07953 45.459991 
L 79.416013 55.395407 
L 79.752495 52.206584 
L 80.088978 39.783949 
L 80.42546 45.384672 
L 80.761943 29.05572 
L 81.098425 26.46 
L 81.434907 25.24345 
L 81.77139 31.171615 
L 82.107872 30.106164 
L 82.444355 27.810417 
L 82.780837 32.730546 
L 83.117319 35.071304 
L 83.453802 41.011941 
L 83.790284 40.29732 
L 84.126767 36.027772 
L 84.463249 41.146206 
L 84.799731 39.4734 
L 85.136214 29.519899 
L 85.472696 33.090436 
L 85.809179 34.693376 
L 86.145661 40.10695 
L 86.482144 40.797891 
L 86.818626 46.54016 
L 87.155108 38.185049 
L 87.491591 35.511219 
L 87.828073 42.83602 
L 88.501038 31.593547 
L 88.83752 41.999317 
L 89.174003 34.207826 
L 89.510485 39.519576 
L 89.846968 39.333588 
L 90.18345 38.542879 
L 90.519932 39.820274 
L 90.856415 35.820986 
L 91.192897 43.576677 
L 91.52938 33.788579 
L 91.865862 20.336419 
L 92.202345 22.94525 
L 92.538827 34.649526 
L 92.875309 33.950389 
L 93.211792 36.57866 
L 93.548274 36.4646 
L 93.884757 23.869724 
L 94.221239 20.849044 
L 94.557721 26.844079 
L 94.894204 25.785549 
L 95.230686 20.479643 
L 95.567169 30.991897 
L 95.903651 29.022198 
L 96.240133 29.804293 
L 96.576616 33.677487 
L 96.913098 32.536967 
L 97.249581 28.185826 
L 97.586063 20.362073 
L 97.922546 19.531426 
L 98.259028 23.343598 
L 98.59551 25.64096 
L 98.931993 31.936299 
L 99.268475 33.960393 
L 99.604958 20.263098 
L 99.94144 21.3671 
L 100.277922 23.507311 
L 100.614405 30.241622 
L 100.950887 27.683048 
L 101.28737 32.614129 
L 101.623852 28.73716 
L 101.960334 21.731322 
L 102.633299 28.122967 
L 102.969782 36.959056 
L 103.306264 39.160376 
L 103.642747 25.260031 
L 103.979229 23.034877 
L 104.315711 26.689896 
L 104.652194 14.76 
L 104.988676 16.142458 
L 105.325159 18.466848 
L 105.661641 17.818802 
L 105.998123 19.450541 
L 106.334606 17.938558 
L 106.671088 25.80765 
L 107.007571 15.59296 
L 107.344053 21.423517 
L 107.680535 24.097544 
L 108.017018 22.717178 
L 108.3535 26.210292 
L 108.689983 20.353293 
L 109.026465 20.620332 
L 109.362948 36.151058 
L 109.69943 25.552234 
L 110.035912 25.05319 
L 110.372395 30.677427 
L 110.708877 27.589711 
L 111.04536 29.438966 
L 111.381842 29.170865 
L 111.718324 26.190892 
L 112.054807 28.785116 
L 112.391289 38.152408 
L 113.064254 29.38591 
L 113.737219 15.160716 
L 114.073701 31.276788 
L 114.410184 33.345655 
L 115.083149 31.384586 
L 115.419631 22.45644 
L 115.756113 23.664684 
L 116.092596 42.420767 
L 116.429078 33.820873 
L 116.765561 43.815374 
L 117.102043 33.725261 
L 117.438525 27.805798 
L 117.775008 31.180075 
L 118.11149 28.41716 
L 118.447973 27.8581 
L 118.784455 33.801445 
L 119.120937 32.240828 
L 119.45742 32.608476 
L 119.793902 32.383514 
L 120.466867 28.327036 
L 120.80335 25.279889 
L 121.139832 28.736998 
L 121.476314 34.429124 
L 121.812797 35.01015 
L 122.149279 36.376742 
L 122.485762 41.378187 
L 122.822244 34.761572 
L 123.158726 41.235138 
L 123.495209 26.803415 
L 123.831691 30.953755 
L 124.168174 32.922325 
L 124.504656 30.417708 
L 124.841139 31.574044 
L 125.177621 27.822655 
L 125.514103 38.810904 
L 125.850586 34.904733 
L 126.187068 38.717824 
L 126.523551 24.224052 
L 126.860033 26.37046 
L 127.196515 25.035717 
L 127.86948 30.960266 
L 128.205963 39.90874 
L 128.542445 36.79991 
L 128.878927 36.38073 
L 129.21541 27.403834 
L 129.551892 25.060305 
L 129.888375 34.954781 
L 130.224857 39.860125 
L 130.56134 40.322761 
L 130.897822 36.066094 
L 131.234304 33.46814 
L 131.570787 38.078928 
L 131.907269 40.347514 
L 132.243752 44.780294 
L 132.580234 44.380577 
L 132.916716 34.304385 
L 133.589681 48.729996 
L 133.926164 39.286158 
L 135.272093 59.760077 
L 135.608576 45.521536 
L 135.945058 44.621204 
L 136.281541 53.081953 
L 136.618023 51.28789 
L 136.954505 52.008713 
L 137.290988 47.038496 
L 137.62747 48.716711 
L 137.963953 53.765295 
L 138.300435 54.48551 
L 138.636917 60.779005 
L 138.9734 52.185238 
L 139.309882 58.160747 
L 139.646365 55.94894 
L 139.982847 49.06955 
L 140.319329 55.702648 
L 140.655812 52.395454 
L 140.992294 74.805546 
L 141.328777 63.278784 
L 141.665259 60.420481 
L 142.001742 55.411783 
L 142.338224 40.455388 
L 142.674706 50.498693 
L 143.011189 54.765892 
L 143.347671 54.349768 
L 143.684154 53.519614 
L 144.357118 58.389779 
L 144.693601 66.834614 
L 145.030083 68.680503 
L 145.366566 71.326325 
L 145.703048 71.414344 
L 146.03953 73.484911 
L 146.376013 83.365993 
L 146.712495 79.187613 
L 147.048978 89.014374 
L 147.38546 86.58839 
L 147.721943 77.426354 
L 148.394907 86.85982 
L 149.067872 75.058276 
L 149.404355 62.210965 
L 149.740837 75.818995 
L 150.077319 69.10516 
L 150.413802 65.514598 
L 150.750284 64.005182 
L 151.086767 79.019938 
L 151.423249 82.055814 
L 151.759731 94.599596 
L 152.096214 85.896867 
L 152.432696 91.947431 
L 152.769179 94.503419 
L 153.105661 88.609816 
L 153.442144 88.230464 
L 153.778626 80.63998 
L 154.115108 79.638778 
L 154.451591 81.438026 
L 154.788073 80.69865 
L 155.124556 73.758483 
L 155.461038 76.492235 
L 155.79752 77.538412 
L 156.134003 72.858165 
L 156.470485 75.786349 
L 156.806968 90.608181 
L 157.14345 81.537828 
L 157.479932 85.025522 
L 157.816415 82.005725 
L 158.152897 90.436471 
L 158.48938 86.035621 
L 158.825862 98.15268 
L 159.162345 97.688961 
L 159.498827 98.533791 
L 159.835309 104.498698 
L 160.171792 119.883556 
L 160.508274 107.922769 
L 160.844757 100.607425 
L 161.181239 90.165884 
L 161.517721 97.484745 
L 161.854204 108.364871 
L 162.190686 103.304464 
L 162.527169 89.726298 
L 163.200133 112.950873 
L 163.536616 111.692044 
L 163.873098 118.432666 
L 164.209581 106.420599 
L 164.546063 103.197921 
L 164.882546 103.77429 
L 165.219028 114.736738 
L 165.891993 99.944939 
L 166.228475 102.51691 
L 166.564958 111.490271 
L 166.90144 110.134919 
L 167.237922 115.295723 
L 167.574405 112.313555 
L 167.910887 117.006287 
L 168.583852 112.595562 
L 168.920334 114.813427 
L 169.256817 107.028922 
L 169.593299 115.493408 
L 169.929782 110.562138 
L 170.266264 117.754206 
L 170.602747 115.338517 
L 170.939229 123.724703 
L 171.275711 128.346118 
L 171.612194 129.508948 
L 171.948676 122.886741 
L 172.285159 124.136517 
L 172.621641 124.018008 
L 172.958123 116.49522 
L 173.294606 123.451695 
L 173.631088 116.207504 
L 173.967571 117.627995 
L 174.304053 121.674068 
L 174.640535 123.818562 
L 175.3135 134.420436 
L 175.986465 127.165547 
L 176.322948 129.443645 
L 176.65943 123.966491 
L 177.332395 126.362054 
L 177.668877 129.174471 
L 178.00536 126.916791 
L 178.341842 128.282532 
L 178.678324 137.079729 
L 179.014807 133.533554 
L 179.351289 140.556385 
L 179.687772 128.398921 
L 180.024254 122.331771 
L 180.360736 126.039346 
L 180.697219 130.99735 
L 181.033701 131.439476 
L 181.370184 130.108447 
L 181.706666 126.170844 
L 182.043149 132.596901 
L 182.716113 122.054866 
L 183.052596 130.937775 
L 183.389078 134.946416 
L 183.725561 131.780511 
L 184.062043 127.511833 
L 184.398525 133.408267 
L 184.735008 128.309051 
L 185.07149 127.453948 
L 185.744455 135.62408 
L 186.080938 131.803839 
L 186.41742 136.464656 
L 186.753902 138.501971 
L 187.090385 141.329664 
L 187.76335 139.012641 
L 188.099832 141.74603 
L 188.772797 129.953368 
L 189.109279 139.053487 
L 189.445762 138.052194 
L 189.782244 141.504692 
L 190.118726 137.601256 
L 190.455209 139.232703 
L 190.791691 142.812179 
L 191.128174 134.485577 
L 191.464656 134.300864 
L 191.801139 134.493785 
L 192.137621 132.317229 
L 192.810586 137.289124 
L 193.483551 145.864431 
L 193.820033 139.112145 
L 194.156515 135.816309 
L 194.492998 138.697161 
L 194.82948 135.554861 
L 195.165963 140.449641 
L 195.502445 141.266331 
L 195.838927 138.045625 
L 196.17541 135.971763 
L 196.511892 138.702065 
L 196.848375 133.639261 
L 197.52134 138.590831 
L 197.857822 138.329569 
L 198.194304 137.426193 
L 198.530787 147.102798 
L 199.203752 151.584706 
L 199.540234 141.148568 
L 199.876716 139.834089 
L 200.213199 133.789839 
L 200.549681 133.505946 
L 201.222646 139.541725 
L 201.559128 131.651551 
L 201.895611 141.830097 
L 202.232093 139.170598 
L 202.568576 147.788839 
L 202.905058 146.380451 
L 203.241541 145.476167 
L 203.914505 136.209453 
L 204.250988 135.82244 
L 204.58747 133.158326 
L 204.923953 136.68854 
L 205.260435 135.208638 
L 205.9334 143.378046 
L 206.269882 148.286315 
L 206.606365 148.419748 
L 206.942847 154.534852 
L 207.279329 156.173709 
L 207.615812 149.443792 
L 207.952294 149.474713 
L 208.288777 145.632624 
L 208.625259 151.035156 
L 208.961742 144.34826 
L 209.298224 142.088072 
L 209.634706 133.940694 
L 209.971189 137.66198 
L 210.307671 138.189977 
L 210.644154 140.866665 
L 210.980636 139.034284 
L 211.317118 130.770592 
L 211.653601 139.795289 
L 211.990083 141.472817 
L 212.326566 138.357954 
L 212.663048 149.740757 
L 212.99953 141.722054 
L 213.336013 139.333127 
L 213.672495 139.990546 
L 214.008978 142.798543 
L 214.34546 138.061839 
L 215.018425 139.821949 
L 215.354907 147.351889 
L 215.69139 151.322132 
L 216.027872 145.180877 
L 216.700837 148.934686 
L 217.037319 132.324367 
L 217.373802 128.836136 
L 218.046767 136.302814 
L 218.719731 138.727758 
L 219.056214 141.517057 
L 219.392696 139.396184 
L 219.729179 136.079578 
L 220.065661 137.879827 
L 220.402144 141.969345 
L 220.738626 141.18652 
L 221.075108 130.56505 
L 221.411591 131.838782 
L 221.748073 139.744649 
L 222.084556 140.37245 
L 222.421038 145.387046 
L 222.75752 146.163259 
L 223.094003 151.782948 
L 223.430485 151.301998 
L 223.766968 144.412635 
L 224.10345 140.263625 
L 224.439932 123.573699 
L 224.776415 127.358187 
L 225.112897 129.338804 
L 225.785862 138.484348 
L 226.122345 141.534096 
L 226.458827 136.672416 
L 226.795309 142.115873 
L 227.131792 138.049198 
L 227.468274 141.390127 
L 227.804757 140.599729 
L 228.141239 140.38384 
L 228.477721 143.140861 
L 228.814204 142.258623 
L 229.150686 136.813591 
L 229.487169 127.995252 
L 229.823651 129.806485 
L 230.160133 137.567632 
L 230.496616 130.89571 
L 230.833098 135.736991 
L 231.169581 137.285895 
L 231.842546 128.020515 
L 232.179028 130.745211 
L 232.51551 139.641059 
L 232.851993 144.747606 
L 233.188475 138.398255 
L 233.524958 147.901442 
L 233.86144 142.459352 
L 234.197922 145.464481 
L 234.534405 130.180221 
L 234.870887 124.819412 
L 235.20737 123.762118 
L 235.543852 129.661635 
L 235.880334 133.030381 
L 236.216817 131.349253 
L 236.553299 135.178338 
L 236.889782 126.88475 
L 237.562747 134.540611 
L 237.899229 129.038239 
L 238.235711 130.434373 
L 238.572194 135.046196 
L 238.908676 128.45013 
L 239.245159 129.670605 
L 239.581641 129.980794 
L 239.918123 122.105072 
L 240.254606 119.410539 
L 240.591088 120.630653 
L 240.927571 123.555108 
L 241.264053 123.794088 
L 241.600535 121.023177 
L 241.937018 125.471683 
L 242.2735 126.824481 
L 242.609983 128.660954 
L 242.946465 128.040555 
L 243.282948 130.680745 
L 243.61943 135.913283 
L 243.955912 129.537737 
L 244.292395 117.665078 
L 244.628877 121.032924 
L 244.96536 119.910019 
L 245.301842 119.770908 
L 245.638324 118.878783 
L 245.974807 128.590416 
L 246.647772 119.253301 
L 246.984254 127.002213 
L 247.320736 120.842248 
L 247.657219 110.382717 
L 247.993701 116.805372 
L 248.330184 116.724787 
L 248.666666 110.831683 
L 249.003149 115.687892 
L 249.339631 113.206186 
L 249.676113 118.258274 
L 250.012596 116.487083 
L 250.349078 119.063113 
L 251.022043 114.866475 
L 251.358525 119.134255 
L 252.03149 122.856824 
L 252.367973 118.430163 
L 252.704455 116.153425 
L 253.040938 110.373517 
L 253.37742 86.767607 
L 253.713902 86.97586 
L 254.72335 122.324627 
L 255.059832 114.444428 
L 255.396314 118.553394 
L 255.732797 114.953237 
L 256.069279 118.279109 
L 256.405762 102.667187 
L 256.742244 109.38374 
L 257.078726 100.631638 
L 257.415209 110.686127 
L 257.751691 107.528494 
L 258.088174 79.373683 
L 258.424656 101.81992 
L 258.761139 102.055574 
L 259.097621 104.284165 
L 259.434103 103.317962 
L 259.770586 107.420283 
L 260.107068 109.721558 
L 260.443551 98.449077 
L 260.780033 114.044095 
L 261.116515 114.399552 
L 261.452998 110.347699 
L 262.125963 69.759713 
L 262.462445 80.127651 
L 262.798927 73.192939 
L 263.13541 89.607256 
L 263.471892 94.109988 
L 263.808375 106.4134 
L 264.144857 107.599782 
L 264.48134 95.038981 
L 264.817822 104.727416 
L 265.154304 96.3609 
L 265.490787 93.821544 
L 266.163752 99.252415 
L 266.836716 82.004749 
L 267.173199 70.009884 
L 267.509681 69.185441 
L 267.846164 65.195451 
L 268.182646 63.635666 
L 268.519128 72.164869 
L 268.855611 87.678606 
L 269.865058 66.604769 
L 270.201541 65.853253 
L 270.538023 77.183991 
L 271.210988 63.672388 
L 271.54747 63.991313 
L 271.883953 57.929662 
L 272.220435 74.481132 
L 272.556917 73.82413 
L 272.8934 63.816162 
L 273.229882 65.981675 
L 273.566365 69.543608 
L 273.902847 67.792659 
L 275.248777 56.55821 
L 275.585259 61.504941 
L 275.921742 60.771406 
L 276.258224 61.626022 
L 276.594706 61.115895 
L 276.931189 56.357844 
L 277.267671 55.502665 
L 277.604154 59.829944 
L 277.940636 53.579493 
L 278.277118 54.78245 
L 278.950083 69.000216 
L 279.286566 77.277001 
L 279.623048 69.151986 
L 279.95953 55.68836 
L 280.296013 47.881808 
L 280.632495 50.856033 
L 280.968978 37.497468 
L 281.30546 51.943075 
L 281.641943 51.505596 
L 281.978425 43.572567 
L 282.314907 60.849745 
L 282.65139 48.723663 
L 282.987872 47.659776 
L 283.324355 44.656313 
L 283.660837 48.243945 
L 283.997319 41.280357 
L 284.333802 41.580527 
L 284.670284 45.683836 
L 285.006767 41.462871 
L 285.343249 51.61232 
L 285.679731 46.169882 
L 286.016214 46.049691 
L 286.352696 38.702502 
L 286.689179 41.672913 
L 287.025661 50.7105 
L 287.362144 52.483153 
L 288.035108 40.228657 
L 288.371591 41.528146 
L 288.708073 49.087004 
L 289.044556 44.862103 
L 289.381038 47.475648 
L 289.71752 42.343447 
L 290.054003 45.521567 
L 290.390485 44.967568 
L 290.726968 45.419959 
L 291.06345 42.288855 
L 291.399932 46.032218 
L 291.736415 55.361656 
L 292.072897 38.139221 
L 292.40938 43.449877 
L 292.745862 45.281643 
L 293.418827 42.21189 
L 293.755309 44.422066 
L 294.091792 41.289607 
L 294.428274 36.661693 
L 294.764757 40.839949 
L 295.101239 41.083612 
L 295.437721 47.836237 
L 295.774204 45.819704 
L 296.110686 34.20387 
L 296.447169 32.229505 
L 296.783651 38.64423 
L 297.120133 37.880031 
L 297.456616 31.876934 
L 297.793098 34.223507 
L 298.129581 40.421396 
L 298.466063 29.413115 
L 298.802546 32.963427 
L 299.139028 39.916565 
L 299.47551 36.410323 
L 299.811993 42.124597 
L 300.148475 40.27064 
L 300.484958 49.329435 
L 300.82144 45.814504 
L 301.494405 33.072217 
L 301.830887 35.234093 
L 302.16737 26.562236 
L 302.503852 25.876439 
L 302.840334 28.175333 
L 303.176817 24.528138 
L 303.849782 32.72785 
L 304.186264 31.917444 
L 304.522747 33.167702 
L 304.859229 41.103197 
L 305.195711 37.869869 
L 305.532194 43.200462 
L 305.868676 41.449211 
L 306.205159 29.355668 
L 306.541641 35.089003 
L 306.878123 30.894173 
L 307.214606 34.681358 
L 307.551088 34.692092 
L 307.887571 34.525406 
L 308.560535 28.151195 
L 308.897018 35.463706 
L 309.569983 28.394728 
L 309.906465 27.670407 
L 310.57943 36.146399 
L 310.915912 31.44996 
L 311.252395 30.269573 
L 311.588877 19.568142 
L 311.92536 17.286098 
L 312.261842 30.287181 
L 312.598324 26.528418 
L 312.934807 20.94944 
L 313.607772 30.112773 
L 313.944254 19.301917 
L 314.280736 30.761471 
L 314.617219 14.889374 
L 315.290184 25.775095 
L 315.626666 22.656048 
L 315.963149 27.107296 
L 316.636113 29.046154 
L 316.972596 34.430411 
L 317.309078 34.0087 
L 317.645561 20.830946 
L 317.982043 21.256337 
L 318.655008 25.851377 
L 318.99149 30.875693 
L 319.327973 24.371539 
L 319.664455 25.678442 
L 320.000938 36.221387 
L 320.33742 24.730288 
L 320.673902 27.208679 
L 321.010385 28.639429 
L 321.346867 22.700904 
L 321.68335 33.891466 
L 322.019832 33.952888 
L 322.356314 26.93894 
L 323.029279 33.169419 
L 323.365762 28.470386 
L 324.038726 35.978241 
L 324.375209 35.746268 
L 325.048174 28.419422 
L 325.384656 32.320087 
L 325.721139 25.171897 
L 326.057621 25.957545 
L 326.394103 37.35792 
L 326.730586 42.27966 
L 327.067068 35.418573 
L 327.403551 32.730191 
L 327.740033 32.407715 
L 328.076515 21.64457 
L 328.412998 28.1523 
L 328.74948 25.489809 
L 329.085963 28.665027 
L 329.422445 26.711997 
L 329.758927 32.70201 
L 330.09541 24.164951 
L 330.431892 30.868042 
L 330.768375 26.28753 
L 331.104857 24.404457 
L 331.44134 32.290785 
L 331.777822 24.116083 
L 332.114304 26.09078 
L 332.450787 37.757874 
L 332.787269 40.13596 
L 333.123752 38.005667 
L 333.460234 34.259185 
L 333.796716 26.601565 
L 334.133199 22.579568 
L 334.469681 23.166769 
L 334.806164 21.50741 
L 335.479128 32.082882 
L 335.815611 30.592183 
L 336.152093 37.471001 
L 336.488576 38.617321 
L 336.825058 36.080516 
L 337.161541 34.908973 
L 337.498023 40.222645 
L 337.834505 41.128946 
L 338.170988 37.520279 
L 338.50747 37.520697 
L 338.843953 28.394988 
L 339.516917 43.052501 
L 339.8534 38.586831 
L 340.189882 47.79859 
L 340.526365 41.651164 
L 340.862847 39.966933 
L 341.199329 49.695402 
L 341.535812 45.328651 
L 341.872294 53.035589 
L 342.208777 48.31472 
L 342.545259 45.604869 
L 342.881742 54.34612 
L 343.218224 49.705832 
L 343.554706 51.917465 
L 343.891189 46.298439 
L 344.227671 46.815189 
L 344.564154 39.966119 
L 344.900636 48.04686 
L 345.237118 39.290721 
L 345.573601 47.425324 
L 345.910083 44.708133 
L 346.246566 43.372403 
L 346.583048 46.406202 
L 346.91953 42.787835 
L 347.256013 36.418144 
L 347.592495 53.471978 
L 347.928978 49.015013 
L 348.26546 48.36433 
L 348.601943 57.830667 
L 348.938425 46.56975 
L 349.274907 48.528414 
L 349.61139 62.314231 
L 349.947872 51.372376 
L 350.620837 58.330859 
L 350.957319 55.012133 
L 351.293802 55.028853 
L 351.630284 56.074552 
L 351.966767 57.934162 
L 352.303249 54.413491 
L 352.639731 56.941137 
L 352.976214 58.32838 
L 353.312696 58.104946 
L 353.649179 58.173637 
L 353.985661 60.493944 
L 354.322144 59.937403 
L 354.658626 67.691655 
L 355.331591 61.578369 
L 355.668073 63.802593 
L 356.004556 56.39687 
L 356.67752 70.344673 
L 357.014003 57.981419 
L 357.350485 68.337763 
L 357.686968 70.543971 
L 358.02345 80.152243 
L 358.359932 78.974474 
L 359.36938 56.2162 
L 359.705862 61.058634 
L 360.042345 69.715211 
L 360.378827 64.273705 
L 360.715309 68.07256 
L 361.051792 66.959912 
L 361.388274 77.569636 
L 361.724757 74.779218 
L 362.397721 61.553585 
L 363.070686 74.270294 
L 363.407169 92.32754 
L 363.743651 78.059765 
L 364.080133 72.243311 
L 364.416616 64.170087 
L 364.753098 75.073406 
L 365.089581 77.090589 
L 365.426063 87.117283 
L 365.762546 89.37274 
L 366.099028 93.434544 
L 366.43551 83.033558 
L 366.771993 97.32233 
L 366.771993 97.32233 
" clip-path="url(#pb0cc75a5e4)" style="fill: none; stroke-dasharray: 5.55,2.4; stroke-dashoffset: 0; stroke: #bf00bf; stroke-width: 1.5"/>
   </g>
   <g id="line2d_23">
    <path d="M 57.208174 93.24042 
L 57.544656 107.467041 
L 57.881139 108.515555 
L 58.217621 71.039904 
L 58.554103 86.748553 
L 58.890586 78.586841 
L 59.227068 54.363747 
L 59.563551 56.572494 
L 59.900033 63.441751 
L 60.236515 67.395934 
L 60.572998 54.516075 
L 60.90948 54.540994 
L 61.245963 52.792388 
L 61.582445 49.320391 
L 61.918927 51.392527 
L 62.25541 57.212084 
L 62.591892 56.048768 
L 62.928375 56.818869 
L 63.264857 64.09666 
L 63.937822 109.700089 
L 64.274304 63.84452 
L 64.610787 46.993873 
L 64.947269 51.622873 
L 65.283752 52.95224 
L 65.620234 64.138914 
L 65.956716 59.551492 
L 66.293199 50.577905 
L 66.629681 50.436501 
L 66.966164 52.760358 
L 67.302646 52.078955 
L 67.639128 47.541681 
L 67.975611 46.634658 
L 68.312093 50.780892 
L 68.648576 47.312338 
L 68.985058 46.272189 
L 69.658023 51.034977 
L 69.994505 45.535575 
L 70.330988 49.191119 
L 70.66747 48.597384 
L 71.003953 44.270504 
L 71.340435 46.292726 
L 71.676917 43.627906 
L 72.0134 37.774969 
L 72.349882 38.700915 
L 72.686365 38.729435 
L 73.022847 37.714245 
L 73.359329 37.183239 
L 73.695812 37.809383 
L 74.032294 36.405459 
L 74.368777 39.086013 
L 74.705259 39.42931 
L 75.041742 41.768449 
L 75.378224 42.491372 
L 75.714706 44.591176 
L 76.051189 40.632634 
L 76.387671 39.464861 
L 76.724154 36.434046 
L 77.060636 38.735546 
L 77.397118 34.915021 
L 77.733601 35.591197 
L 78.070083 38.7178 
L 78.406566 38.254095 
L 78.743048 44.06197 
L 79.07953 40.107669 
L 79.416013 39.096159 
L 79.752495 39.027974 
L 80.42546 37.351749 
L 81.098425 31.408088 
L 81.434907 36.279658 
L 81.77139 32.550137 
L 82.107872 38.552298 
L 82.444355 38.265019 
L 82.780837 39.912538 
L 83.117319 37.1104 
L 83.453802 40.711925 
L 83.790284 40.576984 
L 84.126767 34.119096 
L 84.463249 35.203544 
L 84.799731 27.661761 
L 85.136214 24.339268 
L 85.472696 23.534962 
L 85.809179 26.32772 
L 86.145661 26.906117 
L 86.482144 25.562277 
L 87.155108 29.27714 
L 87.491591 32.739303 
L 87.828073 33.139142 
L 88.164556 30.787109 
L 88.501038 32.67946 
L 88.83752 32.449445 
L 89.174003 27.459437 
L 89.510485 27.908002 
L 89.846968 28.971735 
L 90.18345 32.137802 
L 90.519932 33.335754 
L 90.856415 36.113868 
L 91.52938 30.151996 
L 91.865862 33.377021 
L 92.202345 31.417974 
L 92.538827 28.271532 
L 92.875309 32.556845 
L 93.211792 29.899114 
L 93.548274 31.880235 
L 93.884757 32.329956 
L 94.221239 31.793052 
L 94.557721 32.477609 
L 94.894204 30.521116 
L 95.230686 33.919812 
L 95.567169 30.018034 
L 95.903651 22.140399 
L 96.240133 21.539333 
L 96.576616 27.604389 
L 97.249581 30.718131 
L 97.586063 30.542858 
L 97.922546 24.057764 
L 98.259028 21.073255 
L 98.59551 23.580395 
L 98.931993 23.995648 
L 99.268475 21.504923 
L 99.604958 25.867651 
L 99.94144 26.064803 
L 100.277922 26.460118 
L 100.614405 28.441917 
L 100.950887 28.145865 
L 101.28737 25.968268 
L 101.623852 21.441819 
L 101.960334 19.920251 
L 102.633299 23.614221 
L 102.969782 27.17389 
L 103.306264 28.866167 
L 103.642747 22.233966 
L 103.979229 20.914951 
L 104.315711 21.94305 
L 104.652194 25.83523 
L 104.988676 25.709717 
L 105.325159 27.657623 
L 105.661641 26.170379 
L 105.998123 22.184253 
L 106.334606 23.122008 
L 106.671088 24.87258 
L 107.007571 29.874305 
L 107.344053 32.181415 
L 107.680535 25.477049 
L 108.017018 22.267815 
L 108.3535 23.625844 
L 108.689983 18.450085 
L 109.026465 17.917097 
L 109.362948 18.957964 
L 109.69943 18.994269 
L 110.035912 20.004263 
L 110.372395 19.304341 
L 110.708877 22.971165 
L 111.04536 18.92079 
L 111.718324 22.498438 
L 112.054807 22.200479 
L 112.391289 23.96085 
L 112.727772 21.246641 
L 113.064254 20.639708 
L 113.400736 28.456789 
L 113.737219 25.274275 
L 114.073701 23.787275 
L 114.410184 26.070496 
L 114.746666 25.202138 
L 115.083149 26.155203 
L 115.419631 26.082505 
L 115.756113 24.442547 
L 116.092596 25.42706 
L 116.429078 30.408383 
L 116.765561 29.555746 
L 117.102043 26.835173 
L 117.775008 17.87581 
L 118.11149 25.396116 
L 118.447973 28.425407 
L 118.784455 28.517019 
L 119.120937 27.624721 
L 119.45742 22.68028 
L 119.793902 22.274582 
L 120.130385 31.89635 
L 120.466867 30.300423 
L 120.80335 34.273488 
L 121.476314 25.509888 
L 121.812797 26.7151 
L 122.149279 25.685279 
L 122.485762 25.370652 
L 122.822244 28.161578 
L 123.158726 28.0744 
L 123.495209 28.180465 
L 123.831691 28.02993 
L 124.504656 25.721885 
L 124.841139 23.900115 
L 125.177621 25.232561 
L 125.514103 28.555977 
L 126.187068 30.456497 
L 126.523551 32.94139 
L 126.860033 30.236067 
L 127.196515 32.688066 
L 127.532998 26.353484 
L 127.86948 26.332955 
L 128.205963 27.930995 
L 128.542445 27.043592 
L 128.878927 27.547673 
L 129.21541 25.528799 
L 129.551892 30.549494 
L 129.888375 30.091379 
L 130.224857 31.598632 
L 130.56134 24.913639 
L 130.897822 23.583103 
L 131.234304 23.38134 
L 131.907269 27.010201 
L 132.243752 31.616761 
L 132.580234 31.236874 
L 132.916716 30.604027 
L 133.253199 25.935263 
L 133.589681 23.475127 
L 134.262646 32.061275 
L 134.599128 33.189617 
L 135.272093 28.779218 
L 136.281541 35.27651 
L 136.618023 35.561828 
L 136.954505 30.374569 
L 137.290988 32.993278 
L 137.62747 37.147724 
L 137.963953 33.547707 
L 138.300435 35.091569 
L 138.9734 40.773375 
L 139.309882 44.605266 
L 139.646365 38.135408 
L 139.982847 35.244974 
L 140.319329 39.232983 
L 140.992294 40.421534 
L 141.328777 37.638319 
L 141.665259 37.548076 
L 142.001742 40.455001 
L 142.338224 41.616382 
L 142.674706 44.906241 
L 143.011189 41.373868 
L 143.347671 42.97162 
L 143.684154 42.655003 
L 144.020636 39.04589 
L 144.357118 41.550152 
L 144.693601 40.531614 
L 145.030083 51.622392 
L 146.03953 42.66096 
L 146.376013 34.254641 
L 147.048978 41.011925 
L 147.38546 41.868218 
L 147.721943 41.350169 
L 148.058425 42.199288 
L 148.394907 43.64065 
L 148.73139 48.496775 
L 149.404355 51.916979 
L 149.740837 52.052851 
L 150.077319 53.32247 
L 150.413802 62.312717 
L 150.750284 59.763429 
L 151.086767 73.94865 
L 151.423249 73.712936 
L 151.759731 57.585457 
L 152.096214 61.051188 
L 152.432696 69.930777 
L 153.442144 47.413381 
L 153.778626 53.069873 
L 154.115108 51.486657 
L 154.451591 48.738484 
L 154.788073 47.607217 
L 155.461038 62.619389 
L 155.79752 92.525412 
L 156.134003 75.390015 
L 156.470485 80.941958 
L 156.806968 92.122263 
L 157.479932 75.880745 
L 157.816415 61.534481 
L 158.152897 58.559895 
L 158.48938 61.180349 
L 158.825862 60.572358 
L 159.162345 54.266892 
L 159.498827 55.238374 
L 159.835309 56.971149 
L 160.171792 53.300985 
L 160.508274 54.953522 
L 160.844757 76.127209 
L 161.181239 66.137688 
L 161.517721 65.776641 
L 161.854204 63.392005 
L 162.190686 76.543233 
L 162.527169 74.074913 
L 162.863651 103.997649 
L 163.200133 105.712299 
L 163.536616 106.451735 
L 163.873098 109.933888 
L 164.209581 114.733295 
L 164.882546 107.718896 
L 165.219028 87.060633 
L 165.891993 111.144684 
L 166.228475 109.509988 
L 166.564958 84.328989 
L 166.90144 108.646985 
L 167.237922 112.702074 
L 167.574405 112.523025 
L 167.910887 114.481476 
L 168.24737 110.833474 
L 168.583852 109.221701 
L 168.920334 109.746424 
L 169.256817 113.166802 
L 169.593299 110.630036 
L 169.929782 107.177915 
L 170.602747 112.186257 
L 170.939229 111.961754 
L 171.275711 113.445104 
L 171.612194 112.7606 
L 171.948676 114.033641 
L 172.285159 113.612822 
L 172.621641 112.766632 
L 172.958123 113.372708 
L 173.294606 110.963418 
L 173.631088 113.36725 
L 173.967571 112.233978 
L 174.304053 114.214228 
L 174.640535 113.790969 
L 175.3135 117.997334 
L 175.649983 118.552377 
L 175.986465 116.558345 
L 176.65943 116.643874 
L 176.995912 114.32415 
L 177.332395 116.109082 
L 177.668877 114.267399 
L 178.00536 114.322615 
L 178.341842 115.711396 
L 178.678324 116.508599 
L 179.351289 120.073829 
L 179.687772 119.199471 
L 180.024254 117.840941 
L 180.360736 118.379292 
L 180.697219 116.841861 
L 181.033701 116.946598 
L 181.370184 117.418349 
L 181.706666 118.307757 
L 182.043149 117.788713 
L 182.379631 118.046307 
L 182.716113 120.690379 
L 183.052596 120.174486 
L 183.389078 121.96873 
L 184.062043 116.125154 
L 184.398525 117.170343 
L 184.735008 118.805302 
L 185.07149 119.278868 
L 185.407973 118.835494 
L 185.744455 117.517328 
L 186.080938 119.230995 
L 186.41742 118.296063 
L 186.753902 116.159384 
L 187.426867 120.262629 
L 187.76335 119.550916 
L 188.099832 118.017374 
L 188.436314 119.504135 
L 188.772797 118.377961 
L 189.109279 117.833483 
L 189.782244 120.502725 
L 190.118726 119.572275 
L 191.128174 122.4979 
L 191.464656 122.311023 
L 191.801139 121.833588 
L 192.137621 122.556362 
L 192.810586 118.854673 
L 193.147068 121.259686 
L 193.483551 121.585608 
L 193.820033 122.532976 
L 194.156515 121.573468 
L 194.492998 121.697349 
L 194.82948 122.897207 
L 195.165963 120.692049 
L 195.502445 120.130036 
L 195.838927 120.202299 
L 196.17541 119.586754 
L 196.848375 121.120821 
L 197.52134 124.007723 
L 198.194304 120.788706 
L 198.530787 121.460103 
L 198.867269 120.76693 
L 199.203752 122.034007 
L 199.540234 122.597655 
L 200.213199 120.84287 
L 200.549681 121.490289 
L 200.886164 120.207907 
L 201.222646 120.57916 
L 201.559128 121.536387 
L 201.895611 121.613224 
L 202.232093 121.342808 
L 202.568576 123.91604 
L 202.905058 125.29808 
L 203.241541 125.975164 
L 203.578023 123.266715 
L 203.914505 121.996451 
L 204.250988 120.213799 
L 204.58747 119.848524 
L 205.260435 121.878652 
L 205.596917 119.688962 
L 205.9334 122.131802 
L 206.269882 122.060615 
L 206.606365 124.232136 
L 206.942847 124.548268 
L 207.279329 124.061936 
L 207.615812 122.889978 
L 207.952294 120.993243 
L 208.288777 120.664013 
L 208.625259 119.88871 
L 208.961742 120.803006 
L 209.298224 120.611073 
L 209.634706 121.516742 
L 210.307671 124.698649 
L 210.644154 125.123798 
L 210.980636 126.549747 
L 211.317118 127.374993 
L 211.653601 125.791897 
L 211.990083 125.254467 
L 212.326566 124.205361 
L 212.663048 125.398923 
L 213.336013 122.934124 
L 213.672495 120.389749 
L 214.681943 122.341205 
L 215.018425 121.976709 
L 215.354907 119.271104 
L 215.69139 121.492174 
L 216.027872 122.601881 
L 216.364355 121.816127 
L 216.700837 124.712372 
L 217.373802 121.974889 
L 217.710284 122.08116 
L 218.046767 122.854344 
L 218.383249 121.788949 
L 218.719731 121.688989 
L 219.056214 122.020865 
L 219.729179 125.837938 
L 220.065661 124.427899 
L 220.402144 124.404638 
L 220.738626 124.975549 
L 221.075108 120.335228 
L 221.411591 118.274744 
L 222.421038 121.408671 
L 222.75752 121.707082 
L 223.094003 122.508092 
L 223.430485 122.076416 
L 223.766968 120.940303 
L 224.10345 121.275191 
L 224.439932 122.568346 
L 224.776415 122.68831 
L 225.112897 119.400946 
L 225.44938 119.168931 
L 225.785862 121.56634 
L 226.122345 122.366008 
L 226.458827 123.792936 
L 226.795309 124.276543 
L 227.131792 125.689167 
L 227.468274 126.057408 
L 228.141239 122.354367 
L 228.477721 117.038405 
L 228.814204 117.495895 
L 229.150686 118.381773 
L 229.823651 121.554218 
L 230.160133 122.558377 
L 230.496616 121.281923 
L 230.833098 122.487259 
L 231.169581 121.709005 
L 231.506063 122.393231 
L 231.842546 122.451098 
L 232.179028 122.273089 
L 232.51551 123.067888 
L 232.851993 122.995673 
L 233.188475 121.304726 
L 233.524958 118.293454 
L 233.86144 118.445532 
L 234.197922 120.8826 
L 234.534405 119.41809 
L 235.20737 121.149351 
L 235.880334 118.149018 
L 236.216817 118.781078 
L 236.889782 123.618599 
L 237.226264 122.088769 
L 237.562747 124.161954 
L 237.899229 123.324343 
L 238.235711 123.774609 
L 238.572194 119.621624 
L 238.908676 116.883172 
L 239.245159 116.582444 
L 239.918123 119.685484 
L 240.254606 119.305133 
L 240.591088 120.310455 
L 240.927571 117.984938 
L 241.264053 118.764433 
L 241.600535 120.121789 
L 241.937018 118.652744 
L 242.2735 118.783918 
L 242.609983 120.18846 
L 242.946465 118.502225 
L 243.282948 118.501404 
L 243.61943 118.689598 
L 243.955912 116.273612 
L 244.292395 115.087893 
L 244.628877 115.394117 
L 244.96536 116.371509 
L 245.301842 116.610626 
L 245.638324 115.727436 
L 245.974807 116.94676 
L 246.647772 118.202489 
L 246.984254 118.099033 
L 247.320736 118.826542 
L 247.657219 120.505489 
L 247.993701 118.890272 
L 248.330184 114.737525 
L 248.666666 115.40164 
L 249.676113 114.922998 
L 250.012596 117.788125 
L 250.349078 116.928532 
L 250.685561 115.146974 
L 251.022043 117.306301 
L 251.358525 115.825619 
L 251.695008 112.181826 
L 252.03149 113.818761 
L 252.367973 114.192281 
L 252.704455 112.294216 
L 253.040938 113.576752 
L 253.37742 113.021654 
L 253.713902 114.470408 
L 254.050385 114.162405 
L 254.386867 114.822463 
L 254.72335 114.355035 
L 255.059832 113.545188 
L 255.396314 114.78464 
L 256.069279 116.210739 
L 257.078726 112.11237 
L 257.415209 80.507386 
L 257.751691 69.742547 
L 258.088174 107.315226 
L 258.424656 112.546756 
L 258.761139 115.859714 
L 259.097621 113.71004 
L 259.434103 114.514617 
L 259.770586 113.68687 
L 260.107068 114.501658 
L 260.443551 109.71455 
L 260.780033 111.264905 
L 261.116515 108.888518 
L 261.452998 111.65836 
L 261.78948 111.093329 
L 262.125963 62.064716 
L 262.462445 109.379044 
L 262.798927 109.130843 
L 263.13541 109.608706 
L 263.471892 109.527826 
L 263.808375 110.825068 
L 264.144857 111.651325 
L 264.48134 107.168181 
L 264.817822 112.650365 
L 265.154304 113.42052 
L 265.490787 112.058354 
L 266.163752 52.150129 
L 266.500234 56.160392 
L 266.836716 54.226 
L 267.846164 110.542968 
L 268.182646 111.055974 
L 268.519128 98.388437 
L 268.855611 109.946965 
L 269.192093 105.730195 
L 269.528576 88.947132 
L 269.865058 102.976526 
L 270.201541 107.407906 
L 271.210988 51.492686 
L 271.54747 50.439044 
L 271.883953 48.528205 
L 272.220435 47.323356 
L 272.556917 51.808213 
L 272.8934 67.701649 
L 273.229882 64.469701 
L 273.566365 53.855955 
L 273.902847 49.418434 
L 274.239329 48.231252 
L 274.575812 55.155996 
L 275.248777 47.60591 
L 275.585259 47.211989 
L 275.921742 44.181683 
L 276.258224 52.305362 
L 276.594706 54.136516 
L 276.931189 48.359122 
L 277.267671 48.37536 
L 277.604154 50.458444 
L 277.940636 49.997861 
L 278.277118 48.365585 
L 278.950083 44.605471 
L 279.286566 43.080721 
L 279.623048 45.281138 
L 280.296013 45.919449 
L 280.632495 45.746383 
L 280.968978 43.224608 
L 281.30546 42.226489 
L 281.641943 44.241353 
L 281.978425 41.760261 
L 282.314907 41.661973 
L 282.65139 44.850911 
L 283.324355 56.129874 
L 283.660837 51.466472 
L 284.333802 37.933593 
L 284.670284 38.505792 
L 285.006767 32.697549 
L 285.343249 38.404401 
L 285.679731 39.791897 
L 286.016214 35.924288 
L 286.352696 43.542646 
L 286.689179 39.568893 
L 287.362144 35.769932 
L 287.698626 36.988918 
L 288.035108 34.371749 
L 288.371591 33.60357 
L 288.708073 35.574291 
L 289.044556 34.002225 
L 289.381038 38.733327 
L 289.71752 37.17922 
L 290.054003 36.446786 
L 290.390485 32.761514 
L 290.726968 33.04665 
L 291.06345 38.132936 
L 291.399932 40.219344 
L 291.736415 37.282854 
L 292.072897 33.318639 
L 292.40938 33.094049 
L 292.745862 37.21063 
L 293.082345 36.381093 
L 293.418827 37.132698 
L 293.755309 34.639162 
L 294.091792 35.527437 
L 294.764757 35.971454 
L 295.101239 34.495793 
L 295.437721 35.847714 
L 295.774204 41.008644 
L 296.110686 33.926918 
L 296.447169 34.015901 
L 296.783651 35.395683 
L 297.120133 35.065169 
L 297.456616 34.478829 
L 297.793098 35.033135 
L 298.129581 33.736347 
L 298.466063 31.147473 
L 298.802546 32.618535 
L 299.139028 33.209321 
L 299.47551 36.782306 
L 299.811993 36.661539 
L 300.148475 30.576699 
L 300.484958 27.867275 
L 300.82144 30.712888 
L 301.157922 31.467837 
L 301.494405 28.640025 
L 301.830887 28.784196 
L 302.16737 31.976379 
L 302.503852 27.532987 
L 302.840334 28.012843 
L 303.176817 31.626725 
L 303.513299 30.868606 
L 303.849782 33.552038 
L 304.186264 33.07806 
L 304.522747 37.307892 
L 304.859229 36.799657 
L 305.532194 29.090892 
L 305.868676 29.106005 
L 306.205159 25.299945 
L 306.541641 24.033271 
L 306.878123 25.014903 
L 307.214606 23.47917 
L 307.551088 25.015811 
L 307.887571 27.658784 
L 308.224053 27.86553 
L 308.560535 28.449659 
L 308.897018 32.411379 
L 309.2335 31.802685 
L 309.569983 34.151122 
L 309.906465 33.811244 
L 310.242948 27.496303 
L 310.57943 28.823478 
L 310.915912 27.319206 
L 311.252395 28.959133 
L 311.588877 29.538667 
L 311.92536 29.303402 
L 312.261842 27.942807 
L 312.598324 25.710823 
L 312.934807 28.913021 
L 313.271289 28.11984 
L 313.607772 26.054965 
L 313.944254 25.115228 
L 314.280736 27.080671 
L 314.617219 29.875735 
L 315.290184 26.867475 
L 315.626666 21.169317 
L 315.963149 18.695979 
L 316.299631 24.990213 
L 316.636113 24.923706 
L 316.972596 21.913267 
L 317.309078 23.602014 
L 317.645561 25.907383 
L 317.982043 21.361834 
L 318.318525 25.738 
L 318.655008 19.217052 
L 318.99149 19.755985 
L 319.327973 23.116409 
L 319.664455 22.366956 
L 320.000938 24.506211 
L 320.673902 25.786355 
L 321.010385 28.697385 
L 321.346867 29.115219 
L 321.68335 22.515738 
L 322.019832 20.889644 
L 322.692797 23.724748 
L 323.029279 26.724725 
L 323.365762 23.930412 
L 323.702244 23.647581 
L 324.038726 28.983046 
L 324.375209 24.715847 
L 324.711691 24.660386 
L 325.048174 25.346207 
L 325.384656 22.574333 
L 325.721139 27.690257 
L 326.057621 28.985656 
L 326.394103 25.611445 
L 326.730586 26.007787 
L 327.067068 27.823484 
L 327.403551 26.171089 
L 327.740033 27.373024 
L 328.076515 29.652131 
L 328.412998 30.102556 
L 329.085963 25.853478 
L 329.422445 27.284093 
L 329.758927 24.335471 
L 330.09541 23.962722 
L 330.768375 33.493738 
L 331.44134 28.584636 
L 331.777822 27.713416 
L 332.114304 22.443815 
L 332.450787 24.562959 
L 332.787269 23.964404 
L 333.123752 25.330494 
L 333.460234 24.846437 
L 333.796716 27.430601 
L 334.133199 23.986765 
L 334.469681 26.2261 
L 335.142646 23.245934 
L 335.479128 27.010895 
L 335.815611 23.822183 
L 336.152093 23.954542 
L 336.488576 29.847053 
L 336.825058 32.508127 
L 337.161541 32.085322 
L 337.498023 29.654918 
L 337.834505 25.068635 
L 338.170988 22.166559 
L 338.50747 22.06212 
L 338.843953 21.420121 
L 339.180435 23.768546 
L 339.516917 27.198257 
L 339.8534 27.201376 
L 340.189882 30.442197 
L 340.526365 31.723308 
L 341.199329 29.720296 
L 341.535812 32.050371 
L 341.872294 33.265824 
L 342.208777 31.716431 
L 342.545259 31.157971 
L 342.881742 26.436454 
L 343.218224 28.674139 
L 343.554706 33.566811 
L 343.891189 32.527764 
L 344.227671 36.621925 
L 344.900636 32.803694 
L 345.237118 37.451312 
L 345.573601 36.441161 
L 345.910083 39.975563 
L 346.246566 38.437773 
L 346.583048 36.364697 
L 346.91953 40.402576 
L 347.256013 39.149393 
L 347.592495 39.894508 
L 347.928978 37.257409 
L 348.26546 36.58061 
L 348.601943 33.37095 
L 348.938425 36.552524 
L 349.274907 33.308777 
L 349.61139 36.251142 
L 349.947872 35.915248 
L 350.284355 34.878933 
L 350.620837 36.310334 
L 350.957319 34.712211 
L 351.293802 31.224193 
L 351.630284 38.888039 
L 351.966767 38.797173 
L 352.303249 38.28209 
L 352.639731 42.548002 
L 352.976214 37.932539 
L 353.312696 37.711099 
L 353.649179 44.58448 
L 353.985661 41.051314 
L 354.322144 41.589568 
L 354.658626 43.394053 
L 354.995108 42.154858 
L 355.331591 42.073021 
L 355.668073 42.384004 
L 356.004556 43.40583 
L 356.341038 42.003573 
L 357.014003 43.725649 
L 357.686968 43.916023 
L 358.02345 44.976262 
L 358.359932 44.99702 
L 358.696415 49.000994 
L 359.032897 48.464224 
L 359.36938 46.286773 
L 359.705862 47.034323 
L 360.042345 43.537948 
L 360.378827 46.104579 
L 360.715309 50.734816 
L 361.051792 45.42414 
L 361.724757 51.35889 
L 362.061239 58.451864 
L 362.397721 59.575235 
L 362.734204 52.140934 
L 363.070686 48.83858 
L 363.407169 43.612157 
L 363.743651 44.777973 
L 364.080133 49.891401 
L 364.416616 48.474003 
L 364.753098 49.838961 
L 365.089581 49.408465 
L 365.426063 55.520218 
L 365.762546 55.077357 
L 366.099028 49.884532 
L 366.43551 46.437063 
L 366.771993 49.306806 
L 367.108475 53.657693 
L 367.444958 81.022762 
L 367.78144 61.202939 
L 368.117922 52.40517 
L 368.454405 48.183747 
L 369.12737 56.683707 
L 369.800334 80.231847 
L 370.136817 88.896088 
L 370.473299 67.687794 
L 370.809782 95.894093 
L 370.809782 95.894093 
" clip-path="url(#pb0cc75a5e4)" style="fill: none; stroke-dasharray: 9.6,2.4,1.5,2.4; stroke-dashoffset: 0; stroke: #008000; stroke-width: 1.5"/>
   </g>
   <g id="line2d_24">
    <path d="M 73.359329 50.597715 
L 73.695812 112.685216 
L 74.032294 112.700508 
L 74.368777 28.245665 
L 74.705259 32.93914 
L 75.378224 25.821507 
L 75.714706 26.143833 
L 76.051189 27.146128 
L 76.387671 27.740964 
L 76.724154 25.844113 
L 77.060636 25.846979 
L 77.397118 25.591769 
L 77.733601 25.08385 
L 78.070083 25.386641 
L 78.406566 26.237265 
L 78.743048 26.067874 
L 79.07953 26.179885 
L 79.416013 27.241755 
L 79.752495 33.181594 
L 80.088978 112.717782 
L 80.42546 27.205774 
L 80.761943 24.743261 
L 81.098425 25.419243 
L 81.434907 25.616017 
L 81.77139 27.247503 
L 82.107872 26.580696 
L 82.444355 25.267627 
L 82.780837 25.246971 
L 83.117319 25.586739 
L 83.453802 25.487243 
L 83.790284 24.823839 
L 84.126767 24.690777 
L 84.463249 25.297221 
L 84.799731 24.790763 
L 85.136214 24.637741 
L 85.809179 25.334592 
L 86.145661 24.530846 
L 86.482144 25.063976 
L 86.818626 24.978693 
L 87.155108 24.345617 
L 87.491591 24.640638 
L 87.828073 24.251798 
L 88.164556 23.395797 
L 88.501038 23.53032 
L 88.83752 23.535428 
L 89.510485 23.308974 
L 89.846968 23.40048 
L 90.18345 23.195605 
L 90.519932 23.58702 
L 90.856415 23.63779 
L 91.192897 23.979406 
L 91.52938 24.085432 
L 91.865862 24.392155 
L 92.202345 23.813916 
L 92.538827 23.642228 
L 92.875309 23.199774 
L 93.211792 23.535665 
L 93.548274 22.978026 
L 93.884757 23.075714 
L 94.221239 23.533462 
L 94.557721 23.466039 
L 94.894204 24.314507 
L 95.230686 23.737405 
L 95.567169 23.588291 
L 96.240133 23.46525 
L 96.576616 23.333807 
L 97.249581 22.464533 
L 97.586063 23.176442 
L 97.922546 22.632487 
L 98.259028 23.508511 
L 98.59551 23.467847 
L 98.931993 23.707969 
L 99.268475 23.298765 
L 99.604958 23.824354 
L 99.94144 23.805902 
L 100.277922 22.86138 
L 100.614405 23.018832 
L 100.950887 21.917483 
L 101.28737 21.430465 
L 101.623852 21.313298 
L 101.960334 21.721555 
L 102.296817 21.806719 
L 102.633299 21.609836 
L 103.306264 22.153128 
L 103.642747 22.659277 
L 103.979229 22.717999 
L 104.315711 22.373881 
L 104.652194 22.650134 
L 104.988676 22.617169 
L 105.325159 21.887565 
L 105.998123 22.108405 
L 106.334606 22.571349 
L 106.671088 22.746724 
L 107.007571 23.152509 
L 107.680535 22.280678 
L 108.017018 22.752125 
L 108.3535 22.466626 
L 108.689983 22.005996 
L 109.026465 22.631918 
L 109.362948 22.244657 
L 109.69943 22.533306 
L 110.035912 22.599545 
L 110.372395 22.520942 
L 110.708877 22.620959 
L 111.04536 22.335072 
L 111.381842 22.831502 
L 111.718324 22.261996 
L 112.054807 21.109521 
L 112.391289 21.020827 
L 112.727772 21.908174 
L 113.400736 22.363663 
L 113.737219 22.338018 
L 114.073701 21.39018 
L 114.410184 20.953017 
L 114.746666 21.319662 
L 115.083149 21.381131 
L 115.419631 21.016752 
L 115.756113 21.653808 
L 116.429078 21.741113 
L 116.765561 22.030741 
L 117.102043 21.98774 
L 117.438525 21.669331 
L 117.775008 21.007332 
L 118.11149 20.784471 
L 118.784455 21.325142 
L 119.120937 21.845409 
L 119.45742 22.093064 
L 119.793902 21.123631 
L 120.130385 20.929598 
L 120.466867 21.080519 
L 120.80335 21.649757 
L 121.139832 21.631818 
L 121.476314 21.915864 
L 121.812797 21.698988 
L 122.149279 21.115956 
L 122.822244 21.509013 
L 123.158726 22.240267 
L 123.495209 22.578005 
L 123.831691 21.597842 
L 124.168174 21.127453 
L 124.504656 21.326381 
L 124.841139 20.57054 
L 125.177621 20.491455 
L 125.514103 20.643972 
L 125.850586 20.64961 
L 126.187068 20.797097 
L 126.523551 20.69479 
L 126.860033 21.230604 
L 127.196515 20.639329 
L 127.86948 21.161871 
L 128.205963 21.118467 
L 128.542445 21.375494 
L 128.878927 20.979026 
L 129.21541 20.889763 
L 129.551892 22.032644 
L 129.888375 21.568738 
L 130.224857 21.349872 
L 130.56134 21.683733 
L 130.897822 21.557549 
L 131.234304 21.696469 
L 131.570787 21.685905 
L 131.907269 21.446146 
L 132.243752 21.589867 
L 132.580234 22.318231 
L 132.916716 22.194313 
L 133.253199 21.795918 
L 133.926164 20.485809 
L 134.262646 21.585058 
L 134.599128 22.029131 
L 134.935611 22.042096 
L 135.272093 21.911237 
L 135.608576 21.188559 
L 135.945058 21.128716 
L 136.281541 22.535715 
L 136.618023 22.303821 
L 136.954505 22.882889 
L 137.62747 21.601916 
L 137.963953 21.778065 
L 138.636917 21.581805 
L 138.9734 21.989651 
L 139.982847 21.97063 
L 140.655812 21.633192 
L 140.992294 21.366761 
L 141.328777 21.561363 
L 141.665259 22.04756 
L 142.338224 22.325439 
L 142.674706 22.688634 
L 143.011189 22.293659 
L 143.347671 22.651326 
L 143.684154 21.726166 
L 144.020636 21.721736 
L 144.357118 21.956283 
L 144.693601 21.826696 
L 145.030083 21.900017 
L 145.366566 21.60498 
L 145.703048 22.338578 
L 146.03953 22.272703 
L 146.376013 22.49224 
L 146.712495 21.515464 
L 147.048978 21.319615 
L 147.38546 21.291079 
L 148.058425 21.821611 
L 148.394907 22.494893 
L 149.067872 22.346924 
L 149.404355 21.664554 
L 149.740837 21.30432 
L 150.413802 22.560476 
L 150.750284 22.725397 
L 151.423249 22.080028 
L 152.432696 23.030273 
L 152.769179 23.072161 
L 153.105661 22.313761 
L 153.442144 22.695685 
L 153.778626 23.304016 
L 154.115108 22.778181 
L 154.451591 23.002646 
L 155.124556 23.834208 
L 155.461038 24.394484 
L 155.79752 23.448834 
L 156.134003 23.024928 
L 156.470485 23.60852 
L 157.14345 23.782648 
L 157.479932 23.375647 
L 157.816415 23.362114 
L 158.152897 23.787496 
L 158.48938 23.957566 
L 158.825862 24.438204 
L 159.162345 23.922311 
L 159.498827 24.154884 
L 159.835309 24.109506 
L 160.171792 23.581659 
L 160.508274 23.947127 
L 160.844757 23.799056 
L 161.181239 25.419567 
L 162.190686 24.110004 
L 162.527169 22.881104 
L 163.200133 23.86925 
L 163.536616 23.994542 
L 163.873098 23.918339 
L 164.546063 24.253393 
L 164.882546 24.963256 
L 165.55551 25.463413 
L 165.891993 25.483342 
L 166.228475 25.668903 
L 166.564958 26.981918 
L 166.90144 26.612043 
L 167.237922 28.72478 
L 167.574405 28.685557 
L 167.910887 26.291991 
L 168.24737 26.800075 
L 168.583852 28.081403 
L 169.593299 24.805078 
L 169.929782 25.631216 
L 170.266264 25.401351 
L 170.602747 24.99859 
L 170.939229 24.833164 
L 171.612194 27.027058 
L 171.948676 43.669225 
L 172.285159 29.002869 
L 172.621641 30.34308 
L 172.958123 41.967595 
L 173.294606 31.065285 
L 173.967571 26.870159 
L 174.304053 26.434354 
L 174.640535 26.818954 
L 174.977018 26.731373 
L 175.3135 25.807452 
L 175.986465 26.202349 
L 176.322948 25.665879 
L 176.65943 25.907627 
L 176.995912 29.147099 
L 177.332395 27.548297 
L 177.668877 27.490815 
L 178.00536 27.139322 
L 178.341842 29.231012 
L 178.678324 28.752348 
L 179.014807 112.634672 
L 181.033701 112.688901 
L 181.370184 33.251224 
L 181.706666 112.581484 
L 182.043149 112.738859 
L 182.379631 112.715009 
L 182.716113 31.638388 
L 183.052596 112.702425 
L 184.062043 112.787521 
L 185.07149 112.718463 
L 185.744455 112.73135 
L 186.41742 112.713333 
L 187.426867 112.772406 
L 190.791691 112.777462 
L 192.137621 112.817823 
L 218.719731 112.925126 
L 220.065661 112.897132 
L 221.748073 112.863487 
L 223.094003 112.934365 
L 226.795309 112.942754 
L 228.141239 112.944655 
L 231.506063 112.857388 
L 233.188475 112.915894 
L 235.20737 112.897491 
L 236.889782 112.940592 
L 237.562747 112.842847 
L 240.927571 112.907234 
L 241.600535 112.855889 
L 243.61943 112.956372 
L 245.638324 112.868173 
L 247.657219 112.902917 
L 259.770586 112.848907 
L 261.116515 112.815091 
L 267.509681 112.807138 
L 268.182646 112.777852 
L 273.229882 112.752974 
L 273.566365 30.252258 
L 273.902847 28.053073 
L 274.239329 112.682995 
L 274.912294 112.807624 
L 276.594706 112.718004 
L 277.940636 112.73811 
L 278.277118 26.946955 
L 278.613601 112.713106 
L 281.641943 112.752185 
L 281.978425 30.935449 
L 282.314907 25.497239 
L 282.65139 26.083271 
L 282.987872 25.801988 
L 283.324355 28.84912 
L 283.660837 41.65617 
L 283.997319 112.730078 
L 284.333802 112.737564 
L 284.670284 112.493409 
L 285.006767 112.721385 
L 285.343249 112.659971 
L 285.679731 34.872044 
L 286.016214 112.620531 
L 286.352696 112.684361 
L 286.689179 34.738185 
L 287.025661 27.25915 
L 287.362144 25.40143 
L 287.698626 25.247279 
L 288.371591 24.791758 
L 288.708073 25.447313 
L 289.044556 27.780728 
L 289.381038 27.297777 
L 289.71752 25.747049 
L 290.054003 25.098047 
L 290.390485 24.924416 
L 290.726968 25.937087 
L 291.399932 24.832887 
L 291.736415 24.775319 
L 292.072897 24.332691 
L 292.40938 25.519561 
L 292.745862 25.788605 
L 293.082345 24.943438 
L 293.418827 24.94523 
L 293.755309 25.250232 
L 294.091792 25.183093 
L 295.437721 24.17152 
L 295.774204 24.49297 
L 296.783651 24.561261 
L 297.120133 24.19261 
L 297.456616 24.046386 
L 297.793098 24.340982 
L 298.129581 23.97879 
L 298.466063 23.963717 
L 298.802546 24.430071 
L 299.47551 26.079395 
L 299.811993 25.397917 
L 300.484958 23.418443 
L 300.82144 23.502123 
L 301.157922 22.653869 
L 301.494405 23.486868 
L 301.830887 23.69108 
L 302.16737 23.125348 
L 302.503852 24.23813 
L 302.840334 23.65888 
L 303.513299 23.102371 
L 303.849782 23.280454 
L 304.186264 22.898483 
L 304.522747 22.785359 
L 304.859229 23.073653 
L 305.195711 22.844302 
L 305.532194 23.535302 
L 306.205159 23.201227 
L 306.541641 22.662673 
L 306.878123 22.703779 
L 307.214606 23.447855 
L 307.551088 23.753465 
L 308.224053 22.743708 
L 308.560535 22.710845 
L 308.897018 23.313017 
L 309.2335 23.192352 
L 309.569983 23.30141 
L 309.906465 22.937236 
L 310.57943 23.105924 
L 310.915912 23.131901 
L 311.252395 22.916225 
L 311.588877 23.113527 
L 311.92536 23.868319 
L 312.261842 22.833887 
L 312.598324 22.844949 
L 312.934807 23.047771 
L 314.280736 22.805272 
L 314.617219 22.426586 
L 315.290184 22.728161 
L 315.626666 23.250347 
L 315.963149 23.233142 
L 316.299631 22.3433 
L 316.636113 21.946334 
L 316.972596 22.362661 
L 317.309078 22.473795 
L 317.645561 22.060083 
L 317.982043 22.080501 
L 318.318525 22.547582 
L 318.655008 21.898707 
L 318.99149 21.967598 
L 319.327973 22.496393 
L 319.664455 22.38623 
L 320.000938 22.77785 
L 320.33742 22.709006 
L 320.673902 23.326961 
L 321.010385 23.25349 
L 321.68335 22.125674 
L 322.019832 22.127616 
L 322.356314 21.57192 
L 322.692797 21.38598 
L 323.029279 21.529629 
L 323.365762 21.305465 
L 323.702244 21.529708 
L 324.038726 21.916338 
L 324.711691 22.03195 
L 325.048174 22.611049 
L 325.384656 22.522765 
L 325.721139 22.865447 
L 326.057621 22.816208 
L 326.394103 21.892935 
L 326.730586 22.085989 
L 327.067068 21.86706 
L 327.403551 22.106368 
L 327.740033 22.191399 
L 328.076515 22.156847 
L 328.74948 21.631518 
L 329.085963 22.099388 
L 329.422445 21.984251 
L 329.758927 21.681886 
L 330.09541 21.54426 
L 330.768375 22.240693 
L 331.44134 21.800466 
L 331.777822 20.967679 
L 332.114304 20.605456 
L 332.450787 21.525705 
L 332.787269 21.517193 
L 333.123752 21.076335 
L 333.796716 21.660354 
L 334.133199 20.99627 
L 334.469681 21.634692 
L 334.806164 20.682835 
L 335.142646 20.759939 
L 335.479128 21.25216 
L 335.815611 21.143015 
L 336.152093 21.455187 
L 336.825058 21.642611 
L 337.161541 22.068144 
L 337.498023 22.129566 
L 337.834505 21.164753 
L 338.170988 20.925926 
L 338.843953 21.34132 
L 339.180435 21.779771 
L 339.516917 21.371562 
L 339.8534 21.329492 
L 340.189882 22.109684 
L 340.526365 21.486936 
L 341.199329 21.578118 
L 341.535812 21.173209 
L 341.872294 21.92046 
L 342.208777 22.110814 
L 342.545259 21.617297 
L 342.881742 21.674511 
L 343.218224 21.940389 
L 343.554706 21.699249 
L 343.891189 21.874316 
L 344.227671 22.207791 
L 344.564154 22.273935 
L 345.237118 21.652268 
L 345.573601 21.861296 
L 345.910083 21.430883 
L 346.246566 21.375644 
L 346.91953 22.769962 
L 347.592495 22.051429 
L 347.928978 21.924139 
L 348.26546 21.154243 
L 348.601943 21.463106 
L 348.938425 21.376473 
L 349.274907 21.575797 
L 349.61139 21.505334 
L 349.947872 21.882709 
L 350.284355 21.379955 
L 350.620837 21.706323 
L 351.293802 21.271023 
L 351.630284 21.821287 
L 351.966767 21.355951 
L 352.303249 21.37438 
L 352.639731 22.235971 
L 352.976214 22.625941 
L 353.312696 22.563911 
L 353.649179 22.208178 
L 354.322144 21.113145 
L 354.995108 21.004269 
L 355.668073 21.849041 
L 356.004556 21.849799 
L 356.341038 22.323079 
L 356.67752 22.510906 
L 357.350485 22.217732 
L 357.686968 22.558265 
L 358.02345 22.736499 
L 358.359932 22.509903 
L 358.696415 22.427817 
L 359.032897 21.737899 
L 359.36938 22.064299 
L 359.705862 22.780329 
L 360.042345 22.628918 
L 360.378827 23.226518 
L 361.051792 22.668531 
L 361.388274 23.347877 
L 361.724757 23.201132 
L 362.061239 23.717049 
L 362.734204 23.189281 
L 363.070686 23.779427 
L 363.407169 23.597111 
L 363.743651 23.705355 
L 364.080133 23.3201 
L 364.416616 23.220698 
L 364.753098 22.75192 
L 365.089581 23.216348 
L 365.426063 22.743171 
L 365.762546 23.172202 
L 366.43551 22.97212 
L 366.771993 23.18129 
L 367.108475 22.947967 
L 367.444958 22.437837 
L 367.78144 23.557773 
L 368.454405 23.469734 
L 368.790887 24.093027 
L 369.12737 23.419359 
L 369.463852 23.385841 
L 369.800334 24.390868 
L 370.136817 23.875693 
L 370.473299 23.952915 
L 370.809782 24.217103 
L 371.146264 24.036374 
L 371.819229 24.069466 
L 372.155711 24.218975 
L 372.492194 24.014187 
L 373.501641 24.282916 
L 373.838123 24.293591 
L 374.174606 24.448508 
L 374.511088 24.451761 
L 374.847571 25.03683 
L 375.184053 24.958961 
L 375.520535 24.640244 
L 375.857018 24.749341 
L 376.1935 24.238612 
L 376.529983 24.613113 
L 376.866465 25.290651 
L 377.202948 24.514747 
L 377.875912 25.382204 
L 378.212395 26.418317 
L 378.548877 26.584178 
L 378.88536 25.496173 
L 379.221842 25.013332 
L 379.558324 24.249311 
L 379.894807 24.41908 
L 380.231289 25.167246 
L 380.567772 24.960666 
L 380.904254 25.159414 
L 381.240736 25.096776 
L 381.577219 25.990155 
L 381.913701 25.926135 
L 382.586666 24.662092 
L 382.923149 25.081339 
L 383.259631 25.718079 
L 383.596113 30.362385 
L 383.932596 26.823084 
L 384.269078 25.534437 
L 384.605561 24.917752 
L 385.278525 26.160572 
L 385.95149 30.159856 
L 386.287973 34.831909 
L 386.624455 27.780246 
L 386.960938 91.601747 
L 386.960938 91.601747 
" clip-path="url(#pb0cc75a5e4)" style="fill: none; stroke-dasharray: 1.5,2.475; stroke-dashoffset: 0; stroke: #ff0000; stroke-width: 1.5"/>
   </g>
   <g id="patch_3">
    <path d="M 52.160938 173.52 
L 52.160938 7.2 
" style="fill: none; stroke: #000000; stroke-width: 0.8; stroke-linejoin: miter; stroke-linecap: square"/>
   </g>
   <g id="patch_4">
    <path d="M 386.960938 173.52 
L 386.960938 7.2 
" style="fill: none; stroke: #000000; stroke-width: 0.8; stroke-linejoin: miter; stroke-linecap: square"/>
   </g>
   <g id="patch_5">
    <path d="M 52.160938 173.52 
L 386.960938 173.52 
" style="fill: none; stroke: #000000; stroke-width: 0.8; stroke-linejoin: miter; stroke-linecap: square"/>
   </g>
   <g id="patch_6">
    <path d="M 52.160938 7.2 
L 386.960938 7.2 
" style="fill: none; stroke: #000000; stroke-width: 0.8; stroke-linejoin: miter; stroke-linecap: square"/>
   </g>
   <g id="legend_1">
    <g id="patch_7">
     <path d="M 59.160938 168.52 
L 160.248438 168.52 
Q 162.248438 168.52 162.248438 166.52 
L 162.248438 108.8075 
Q 162.248438 106.8075 160.248438 106.8075 
L 59.160938 106.8075 
Q 57.160938 106.8075 57.160938 108.8075 
L 57.160938 166.52 
Q 57.160938 168.52 59.160938 168.52 
z
" style="fill: #ffffff; opacity: 0.8; stroke: #cccccc; stroke-linejoin: miter"/>
    </g>
    <g id="line2d_25">
     <path d="M 61.160938 114.905938 
L 71.160938 114.905938 
L 81.160938 114.905938 
" style="fill: none; stroke: #1f77b4; stroke-width: 1.5; stroke-linecap: square"/>
    </g>
    <g id="text_13">
     <!-- 1-step preds -->
     <g transform="translate(89.160938 118.405938) scale(0.1 -0.1)">
      <defs>
       <path id="DejaVuSans-2d" d="M 313 2009 
L 1997 2009 
L 1997 1497 
L 313 1497 
L 313 2009 
z
" transform="scale(0.015625)"/>
       <path id="DejaVuSans-73" d="M 2834 3397 
L 2834 2853 
Q 2591 2978 2328 3040 
Q 2066 3103 1784 3103 
Q 1356 3103 1142 2972 
Q 928 2841 928 2578 
Q 928 2378 1081 2264 
Q 1234 2150 1697 2047 
L 1894 2003 
Q 2506 1872 2764 1633 
Q 3022 1394 3022 966 
Q 3022 478 2636 193 
Q 2250 -91 1575 -91 
Q 1294 -91 989 -36 
Q 684 19 347 128 
L 347 722 
Q 666 556 975 473 
Q 1284 391 1588 391 
Q 1994 391 2212 530 
Q 2431 669 2431 922 
Q 2431 1156 2273 1281 
Q 2116 1406 1581 1522 
L 1381 1569 
Q 847 1681 609 1914 
Q 372 2147 372 2553 
Q 372 3047 722 3315 
Q 1072 3584 1716 3584 
Q 2034 3584 2315 3537 
Q 2597 3491 2834 3397 
z
" transform="scale(0.015625)"/>
       <path id="DejaVuSans-70" d="M 1159 525 
L 1159 -1331 
L 581 -1331 
L 581 3500 
L 1159 3500 
L 1159 2969 
Q 1341 3281 1617 3432 
Q 1894 3584 2278 3584 
Q 2916 3584 3314 3078 
Q 3713 2572 3713 1747 
Q 3713 922 3314 415 
Q 2916 -91 2278 -91 
Q 1894 -91 1617 61 
Q 1341 213 1159 525 
z
M 3116 1747 
Q 3116 2381 2855 2742 
Q 2594 3103 2138 3103 
Q 1681 3103 1420 2742 
Q 1159 2381 1159 1747 
Q 1159 1113 1420 752 
Q 1681 391 2138 391 
Q 2594 391 2855 752 
Q 3116 1113 3116 1747 
z
" transform="scale(0.015625)"/>
       <path id="DejaVuSans-20" transform="scale(0.015625)"/>
       <path id="DejaVuSans-72" d="M 2631 2963 
Q 2534 3019 2420 3045 
Q 2306 3072 2169 3072 
Q 1681 3072 1420 2755 
Q 1159 2438 1159 1844 
L 1159 0 
L 581 0 
L 581 3500 
L 1159 3500 
L 1159 2956 
Q 1341 3275 1631 3429 
Q 1922 3584 2338 3584 
Q 2397 3584 2469 3576 
Q 2541 3569 2628 3553 
L 2631 2963 
z
" transform="scale(0.015625)"/>
       <path id="DejaVuSans-64" d="M 2906 2969 
L 2906 4863 
L 3481 4863 
L 3481 0 
L 2906 0 
L 2906 525 
Q 2725 213 2448 61 
Q 2172 -91 1784 -91 
Q 1150 -91 751 415 
Q 353 922 353 1747 
Q 353 2572 751 3078 
Q 1150 3584 1784 3584 
Q 2172 3584 2448 3432 
Q 2725 3281 2906 2969 
z
M 947 1747 
Q 947 1113 1208 752 
Q 1469 391 1925 391 
Q 2381 391 2643 752 
Q 2906 1113 2906 1747 
Q 2906 2381 2643 2742 
Q 2381 3103 1925 3103 
Q 1469 3103 1208 2742 
Q 947 2381 947 1747 
z
" transform="scale(0.015625)"/>
      </defs>
      <use xlink:href="#DejaVuSans-31"/>
      <use xlink:href="#DejaVuSans-2d" x="63.623047"/>
      <use xlink:href="#DejaVuSans-73" x="99.707031"/>
      <use xlink:href="#DejaVuSans-74" x="151.806641"/>
      <use xlink:href="#DejaVuSans-65" x="191.015625"/>
      <use xlink:href="#DejaVuSans-70" x="252.539062"/>
      <use xlink:href="#DejaVuSans-20" x="316.015625"/>
      <use xlink:href="#DejaVuSans-70" x="347.802734"/>
      <use xlink:href="#DejaVuSans-72" x="411.279297"/>
      <use xlink:href="#DejaVuSans-65" x="450.142578"/>
      <use xlink:href="#DejaVuSans-64" x="511.666016"/>
      <use xlink:href="#DejaVuSans-73" x="575.142578"/>
     </g>
    </g>
    <g id="line2d_26">
     <path d="M 61.160938 129.584063 
L 71.160938 129.584063 
L 81.160938 129.584063 
" style="fill: none; stroke-dasharray: 5.55,2.4; stroke-dashoffset: 0; stroke: #bf00bf; stroke-width: 1.5"/>
    </g>
    <g id="text_14">
     <!-- 4-step preds -->
     <g transform="translate(89.160938 133.084063) scale(0.1 -0.1)">
      <use xlink:href="#DejaVuSans-34"/>
      <use xlink:href="#DejaVuSans-2d" x="63.623047"/>
      <use xlink:href="#DejaVuSans-73" x="99.707031"/>
      <use xlink:href="#DejaVuSans-74" x="151.806641"/>
      <use xlink:href="#DejaVuSans-65" x="191.015625"/>
      <use xlink:href="#DejaVuSans-70" x="252.539062"/>
      <use xlink:href="#DejaVuSans-20" x="316.015625"/>
      <use xlink:href="#DejaVuSans-70" x="347.802734"/>
      <use xlink:href="#DejaVuSans-72" x="411.279297"/>
      <use xlink:href="#DejaVuSans-65" x="450.142578"/>
      <use xlink:href="#DejaVuSans-64" x="511.666016"/>
      <use xlink:href="#DejaVuSans-73" x="575.142578"/>
     </g>
    </g>
    <g id="line2d_27">
     <path d="M 61.160938 144.262188 
L 71.160938 144.262188 
L 81.160938 144.262188 
" style="fill: none; stroke-dasharray: 9.6,2.4,1.5,2.4; stroke-dashoffset: 0; stroke: #008000; stroke-width: 1.5"/>
    </g>
    <g id="text_15">
     <!-- 16-step preds -->
     <g transform="translate(89.160938 147.762188) scale(0.1 -0.1)">
      <use xlink:href="#DejaVuSans-31"/>
      <use xlink:href="#DejaVuSans-36" x="63.623047"/>
      <use xlink:href="#DejaVuSans-2d" x="127.246094"/>
      <use xlink:href="#DejaVuSans-73" x="163.330078"/>
      <use xlink:href="#DejaVuSans-74" x="215.429688"/>
      <use xlink:href="#DejaVuSans-65" x="254.638672"/>
      <use xlink:href="#DejaVuSans-70" x="316.162109"/>
      <use xlink:href="#DejaVuSans-20" x="379.638672"/>
      <use xlink:href="#DejaVuSans-70" x="411.425781"/>
      <use xlink:href="#DejaVuSans-72" x="474.902344"/>
      <use xlink:href="#DejaVuSans-65" x="513.765625"/>
      <use xlink:href="#DejaVuSans-64" x="575.289062"/>
      <use xlink:href="#DejaVuSans-73" x="638.765625"/>
     </g>
    </g>
    <g id="line2d_28">
     <path d="M 61.160938 158.940313 
L 71.160938 158.940313 
L 81.160938 158.940313 
" style="fill: none; stroke-dasharray: 1.5,2.475; stroke-dashoffset: 0; stroke: #ff0000; stroke-width: 1.5"/>
    </g>
    <g id="text_16">
     <!-- 64-step preds -->
     <g transform="translate(89.160938 162.440313) scale(0.1 -0.1)">
      <use xlink:href="#DejaVuSans-36"/>
      <use xlink:href="#DejaVuSans-34" x="63.623047"/>
      <use xlink:href="#DejaVuSans-2d" x="127.246094"/>
      <use xlink:href="#DejaVuSans-73" x="163.330078"/>
      <use xlink:href="#DejaVuSans-74" x="215.429688"/>
      <use xlink:href="#DejaVuSans-65" x="254.638672"/>
      <use xlink:href="#DejaVuSans-70" x="316.162109"/>
      <use xlink:href="#DejaVuSans-20" x="379.638672"/>
      <use xlink:href="#DejaVuSans-70" x="411.425781"/>
      <use xlink:href="#DejaVuSans-72" x="474.902344"/>
      <use xlink:href="#DejaVuSans-65" x="513.765625"/>
      <use xlink:href="#DejaVuSans-64" x="575.289062"/>
      <use xlink:href="#DejaVuSans-73" x="638.765625"/>
     </g>
    </g>
   </g>
  </g>
 </g>
 <defs>
  <clipPath id="pb0cc75a5e4">
   <rect x="52.160938" y="7.2" width="334.8" height="166.32"/>
  </clipPath>
 </defs>
</svg>
